<svg xmlns="http://www.w3.org/2000/svg" width="24.123" height="17.283" viewBox="0 0 24.123 17.283">
  <g id="folder_plus" transform="translate(0)">
    <g id="Grupo_53" data-name="Grupo 53">
      <g id="Icon-folder" transform="translate(0 1.283)">
        <g id="Grupo_4" data-name="Grupo 4" transform="translate(0)">
          <g id="Grupo_3" data-name="Grupo 3">
            <path id="Caminho_23" data-name="Caminho 23" d="M10.3,19h3.442a1.314,1.314,0,0,1,.835.3l1.13.931h0a.263.263,0,0,0,.167.06H26.486a1.3,1.3,0,0,1,1.3,1.29V23.9a.26.26,0,0,0,.261.258H29.1a1.025,1.025,0,0,1,1.031,1.019,1.008,1.008,0,0,1-.028.236L28.03,34.009A1.3,1.3,0,0,1,26.76,35H10.3A1.3,1.3,0,0,1,9,33.71V20.29H9A1.3,1.3,0,0,1,10.3,19Zm18.367,6.769h0a.255.255,0,0,0,.007-.06.26.26,0,0,0-.261-.258h-14.8a.521.521,0,0,0-.5.381l-2.064,7.551a.255.255,0,0,0-.009.067.26.26,0,0,0,.261.258H26.554a.26.26,0,0,0,.254-.2h0ZM10.566,20.29h0a.26.26,0,0,0-.261.258h0v10a.1.1,0,0,0,.077.1.1.1,0,0,0,.128-.073h0L12,25.115a1.3,1.3,0,0,1,1.26-.954H26.225a.26.26,0,0,0,.261-.258V21.839a.26.26,0,0,0-.261-.258H15.786a1.314,1.314,0,0,1-.835-.3l-1.13-.931a.263.263,0,0,0-.167-.06H10.566Z" transform="translate(-9 -19)" fill="#fff"/>
          </g>
        </g>
      </g>
    </g>
    <g id="icon-plus" transform="translate(14.123)">
      <circle id="Elipse_7" data-name="Elipse 7" cx="5" cy="5" r="5" transform="translate(0 0.5)" fill="#080808"/>
      <text id="_" data-name="+" transform="translate(2.877 8)" fill="#fff" font-size="8" font-family="Roboto-Bold, Roboto" font-weight="700"><tspan x="0" y="0">+</tspan></text>
    </g>
  </g>
</svg>
