<svg xmlns="http://www.w3.org/2000/svg" width="65.951" height="48.142" viewBox="0 0 65.951 48.142">
  <g id="Grupo_475" data-name="Grupo 475" transform="translate(-0.952)">
    <path id="Caminho_145" data-name="Caminho 145" d="M169.146,260.1l.964-2.833a.952.952,0,0,0-.13-.87.964.964,0,0,0-.792-.4H138.04a.961.961,0,0,0-.926,1.262l.922,2.818a5.243,5.243,0,0,0,4.743,3.434h21.593A5.312,5.312,0,0,0,169.146,260.1Zm-29.258-.617-.505-1.534h28.446l-.526,1.534a3.392,3.392,0,0,1-2.929,2.084H142.78A3.327,3.327,0,0,1,139.888,259.482Z" transform="translate(-120.639 -231.929)" fill="#5c5c5c"/>
    <path id="Caminho_146" data-name="Caminho 146" d="M82.424,103.25a34.016,34.016,0,0,0-3.684-3h2.718a3.212,3.212,0,0,0,3.329-3.061c0-1.822-1.83-3.061-4.553-3.061H76.98a43.715,43.715,0,0,0-1.267-5.178C74.349,85.289,71.5,83,68.284,83H35.737c-3.284,0-6.3,2.4-7.514,5.964-.377,1.109-.824,3.219-1.223,5.167H23.718c-2.723,0-4.553,1.239-4.553,3.061a3.212,3.212,0,0,0,3.329,3.061h2.67c-.056,0-.113.083-.172.128a.973.973,0,1,0,1.188,1.54c.387-.3.724-.554.949-.725,2.075.219,13.37,1.351,24.578,1.351,11.137,0,22.79-1.118,25.054-1.346a52.4,52.4,0,0,1,4.265,3.4,7.786,7.786,0,0,1,1.64,2.45c-1.426-.007-4.29-.018-5.2,0-2.892.072-5.035,1.087-6.37,3.016a6.965,6.965,0,0,0-.972,3.543.967.967,0,0,0,.974.966H83v2.874a4.784,4.784,0,0,1-4.782,4.779H25.73a4.784,4.784,0,0,1-4.782-4.779v-2.874h11.9a.967.967,0,0,0,.974-.966,6.977,6.977,0,0,0-.972-3.547c-1.335-1.929-3.478-2.942-6.37-3.014-.891-.023-3.708-.011-5.18,0a8.085,8.085,0,0,1,1.609-2.457.974.974,0,1,0-1.389-1.365A8.671,8.671,0,0,0,19,108.595v8.863a6.682,6.682,0,0,0,4.452,6.308v4.9a2.418,2.418,0,0,0,2.364,2.477H30.31a2.5,2.5,0,0,0,2.465-2.477v-4.48H70.9v4.48a2.468,2.468,0,0,0,2.423,2.477h4.814a2.417,2.417,0,0,0,2.363-2.477v-4.9a6.682,6.682,0,0,0,4.452-6.308v-8.863A8.16,8.16,0,0,0,82.424,103.25Zm-2.191-7.172c1.461,0,2.605.5,2.605,1.113a1.292,1.292,0,0,1-1.381,1.113H77.73c-.106-.7-.236-1.391-.383-2.226Zm-59.12,1.113c0-.616,1.144-1.113,2.605-1.113h2.91c-.151.835-.285,1.531-.394,2.226h-3.74A1.292,1.292,0,0,1,21.113,97.192ZM51.708,100.6c-10.191,0-20.46-.945-23.675-1.268A97.6,97.6,0,0,1,30.068,89.6c.941-2.77,3.22-4.654,5.67-4.654H68.284c2.383,0,4.531,1.814,5.6,4.7a79.1,79.1,0,0,1,2.037,9.67C72.636,99.633,61.95,100.6,51.708,100.6Zm-25.274,8.408c2.266.056,3.842.761,4.817,2.169a4.414,4.414,0,0,1,.528,1.461H20.948V109C22.248,109,25.5,108.983,26.434,109.006Zm4.393,19.658a.556.556,0,0,1-.517.529H25.816c-.266,0-.416-.263-.416-.529v-4.489a2.847,2.847,0,0,0,.329.009h5.1Zm47.724,0c0,.266-.149.529-.415.529H73.322a.52.52,0,0,1-.476-.529v-4.48h5.375a2.883,2.883,0,0,0,.329-.009Zm-6.377-16.028a4.423,4.423,0,0,1,.527-1.461c.975-1.408,2.55-2.117,4.817-2.173.949-.024,4.252-.005,5.486,0v3.632Z" transform="translate(-18.048 -83)" fill="#5c5c5c"/>
    <path id="Caminho_147" data-name="Caminho 147" d="M182.133,322a.974.974,0,0,0,0,1.948h18.878a.974.974,0,0,0,0-1.948Z" transform="translate(-158.597 -288.746)" fill="#5c5c5c"/>
  </g>
</svg>
