<svg xmlns="http://www.w3.org/2000/svg" width="58" height="58" viewBox="0 0 58 58">
    <g id="corporativo" transform="translate(-5 -5)">
    <g id="Grupo_484" data-name="Grupo 484" transform="translate(10.375 5.636)">
        <path id="Caminho_149" data-name="Caminho 149" d="M35.935,58.776a.387.387,0,0,1-.258-.064c-4.318-1.16-4.124-5.22-4-8.571a13.941,13.941,0,0,0-.193-4.124,5.137,5.137,0,0,0-1.676-2.191,7.154,7.154,0,0,1-1.933-2.384,8.618,8.618,0,0,1-.644-3.8,7.471,7.471,0,0,0-.193-2.127c-.258-1.1-.773-1.353-1.8-1.8a17.206,17.206,0,0,1-1.547-.773,15.287,15.287,0,0,1-1.933-1.482,8.979,8.979,0,0,0-1.224-.967,4.573,4.573,0,0,0-2-.838c-.193-.064-.387-.064-.58-.129-2.513-.644-3.093-2.771-3.609-4.447a20.408,20.408,0,0,1-.967-7.218.969.969,0,1,1,1.933.129,18.394,18.394,0,0,0,.9,6.573c.516,1.869.9,2.707,2.191,3.093.193.064.387.064.516.129a7.968,7.968,0,0,1,2.707,1.16,10.517,10.517,0,0,1,1.289,1.1,9.732,9.732,0,0,0,1.676,1.289,8.02,8.02,0,0,0,1.289.644,4.216,4.216,0,0,1,2.964,3.222,11.024,11.024,0,0,1,.193,2.513,7.18,7.18,0,0,0,.451,2.964,5.475,5.475,0,0,0,1.482,1.74A6.8,6.8,0,0,1,33.228,45.5a14.8,14.8,0,0,1,.322,4.833c-.129,2.642-.064,4.576.967,5.671a4.552,4.552,0,0,1,.451-3.48,5.984,5.984,0,0,1,2.771-1.74,6.233,6.233,0,0,0,1.611-.838c1.031-.773,1.224-1.482,1.482-2.9l.064-.193a3.741,3.741,0,0,1,2.062-2.32c.322-.193.644-.387.9-.58,1.1-.967,2.707-3.222,2.707-4.833a1.6,1.6,0,0,0-.451-1.224,7.326,7.326,0,0,0-2-1.1,12.879,12.879,0,0,1-1.353-.644,7.89,7.89,0,0,1-2-1.8,8.3,8.3,0,0,0-1.031-1.1,4.923,4.923,0,0,0-2.32-.644c-.516-.064-.967-.129-1.482-.193a20.724,20.724,0,0,1-2.384-.773c-.709-.258-1.353-.516-2-.709a9.034,9.034,0,0,0-4.318.258c-1.869.387-3.093.516-3.738-2-.129-.451-.58-.644-1.482-.9-1.16-.322-3.351-.967-2.578-3.931a4.647,4.647,0,0,1,3.351-3.351,5.136,5.136,0,0,1,3.544.193,14.474,14.474,0,0,1,2.836-4.962c1.869-2.384,3.287-2.642,6.122-2.578h.451a1.958,1.958,0,0,0-.451-.322,3.611,3.611,0,0,1-1.16-1.031,10.835,10.835,0,0,1-.967-1.933c-.58-1.353-1.031-2.256-1.8-2.384a1.028,1.028,0,0,1-.838-1.16A.982.982,0,0,1,31.681,6c1.933.322,2.707,2.127,3.287,3.544a11.48,11.48,0,0,0,.773,1.547,8.7,8.7,0,0,0,.709.58,3.272,3.272,0,0,1,1.482,1.611,1.612,1.612,0,0,1-.193,1.547,2.493,2.493,0,0,1-2.32.709H35.29c-2.384-.064-3.158.064-4.576,1.8-1.224,1.547-2.578,3.416-2.707,5.413a.89.89,0,0,1-.644.838,1.01,1.01,0,0,1-1.031-.193,3.172,3.172,0,0,0-3.029-.644,2.841,2.841,0,0,0-2,2c-.258,1.16-.064,1.224,1.224,1.547,1.031.322,2.449.709,2.9,2.32a2.276,2.276,0,0,0,.258.773c.193,0,.773-.129,1.16-.193A10.66,10.66,0,0,1,32,29a12.613,12.613,0,0,1,2.191.773,13.719,13.719,0,0,0,2.127.709c.387.064.773.129,1.224.193a6.1,6.1,0,0,1,3.351,1.1,8.319,8.319,0,0,1,1.289,1.353A5.637,5.637,0,0,0,43.6,34.48l1.16.58a7.623,7.623,0,0,1,2.513,1.482,3.692,3.692,0,0,1,1.1,2.707C48.308,41.7,46.246,44.4,44.957,45.5c-.387.322-.838.58-1.16.838-.644.387-1.031.644-1.16,1.1l-.064.193a5.7,5.7,0,0,1-2.256,4,10.459,10.459,0,0,1-2.062,1.1,5.834,5.834,0,0,0-2,1.16c-.387.451-.064,2,.064,2.9.064.387.129.773.193,1.1a.839.839,0,0,1-.322.838C36.386,58.647,36.128,58.776,35.935,58.776Z" transform="translate(-13.341 -5.987)" fill="#5c5c5c"/>
    </g>
    <g id="Grupo_485" data-name="Grupo 485" transform="translate(5 5)">
        <path id="Caminho_150" data-name="Caminho 150" d="M34,63A29,29,0,1,1,63,34,29.044,29.044,0,0,1,34,63ZM34,7A27,27,0,1,0,61,34,27.036,27.036,0,0,0,34,7Z" transform="translate(-5 -5)" fill="#5c5c5c"/>
    </g>
    <g id="Grupo_486" data-name="Grupo 486" transform="translate(42.695 7.513)">
        <path id="Caminho_151" data-name="Caminho 151" d="M77.288,38.416a3.858,3.858,0,0,1-2.191-.709C72.777,36.1,72.133,32.358,72,31.649a23.975,23.975,0,0,1-.064-4.318c.064-2.513.193-5.091-1.031-7.024a7.519,7.519,0,0,0-1.224-1.289c-.773-.644-1.611-1.353-1.482-2.384a2.226,2.226,0,0,1,1.031-1.418,9.316,9.316,0,0,0-1.869-.709c-1.8-.516-4-1.16-3.867-4.64a1,1,0,1,1,2,.064c-.064,1.933.709,2.127,2.449,2.642a7.123,7.123,0,0,1,3.8,2.127,1.026,1.026,0,0,1,.193.838,1.045,1.045,0,0,1-.58.709,5.171,5.171,0,0,0-1.16.644,7.056,7.056,0,0,0,.709.644,7.2,7.2,0,0,1,1.676,1.74c1.482,2.449,1.418,5.349,1.289,8.184a19.672,19.672,0,0,0,.064,3.931c.258,1.74,1.031,3.931,2.256,4.7a1.806,1.806,0,0,0,1.611.258,3.07,3.07,0,0,0,1.289-1.16c.58-.709,1.16-1.547,2.191-1.482,1.031,0,1.8.967,2.256,1.611a.974.974,0,0,1-1.611,1.1,2.8,2.8,0,0,0-.709-.773,3.526,3.526,0,0,0-.644.709,4.577,4.577,0,0,1-2.449,1.869A1.612,1.612,0,0,1,77.288,38.416Z" transform="translate(-63.492 -8.9)" fill="#5c5c5c"/>
    </g>
    </g>
</svg>