<?xml version="1.0" standalone="no"?>
<!DOCTYPE svg PUBLIC "-//W3C//DTD SVG 20010904//EN"
 "http://www.w3.org/TR/2001/REC-SVG-20010904/DTD/svg10.dtd">
<svg version="1.0" xmlns="http://www.w3.org/2000/svg"
 width="94.000000pt" height="68.000000pt" viewBox="0 0 94.000000 68.000000"
 preserveAspectRatio="xMidYMid meet">

<g transform="translate(0.000000,68.000000) scale(0.100000,-0.100000)"
fill="#FFFFFF" stroke="none">
<path d="M385 667 c-41 -19 -95 -74 -111 -114 -8 -18 -14 -54 -14 -80 1 -183
215 -279 350 -157 103 93 90 255 -26 334 -45 30 -150 39 -199 17z m115 -134
l0 -66 25 23 25 24 23 -23 22 -23 -59 -54 c-33 -30 -62 -54 -65 -54 -4 0 -31
25 -61 55 -53 54 -53 55 -35 75 l18 20 24 -22 23 -21 0 60 c0 67 3 73 37 73
22 0 23 -3 23 -67z"/>
<path d="M13 393 c-10 -3 -13 -53 -13 -199 l0 -194 470 0 470 0 0 194 c0 191
0 195 -22 202 -40 12 -48 -16 -48 -183 l0 -153 -400 0 -400 0 0 151 c0 176 -8
202 -57 182z"/>
</g>
</svg>
