<svg xmlns="http://www.w3.org/2000/svg" width="64.887" height="51.227" viewBox="0 0 64.887 51.227">
    <g id="Grupo_487" data-name="Grupo 487" transform="translate(-0.3 -5.5)">
    <g id="Grupo_487-2" data-name="Grupo 487" transform="translate(0.3 5.5)">
        <path id="Caminho_152" data-name="Caminho 152" d="M59.145,10.1H53.234a2.678,2.678,0,0,0-2.5,1.97H45.222V8a2.494,2.494,0,0,0-2.5-2.5H23.812a2.494,2.494,0,0,0-2.5,2.5v4.072H15.537A3.952,3.952,0,0,0,11.6,16.008v3.546H10.283a2.354,2.354,0,0,0-2.364,2.364v5.254H3.978a3.678,3.678,0,1,0,0,7.356H7.918v5.123a2.354,2.354,0,0,0,2.364,2.364H11.6v3.546A3.952,3.952,0,0,0,15.537,49.5h5.779V51.21H18.689a2.758,2.758,0,1,0,0,5.517H50.87a2.758,2.758,0,0,0,0-5.517H48.243V49.5h2.364a2.43,2.43,0,0,0,2.5,1.97h5.911A6.166,6.166,0,0,0,65.187,45.3V16.271A6.14,6.14,0,0,0,59.145,10.1ZM23.286,8a.565.565,0,0,1,.525-.525H42.857A.565.565,0,0,1,43.383,8v4.072h-20.1ZM3.978,32.558a1.708,1.708,0,1,1,0-3.415H7.918v3.415H3.978Zm6.3,7.487a.348.348,0,0,1-.394-.394V22.05a.419.419,0,0,1,.394-.394H11.6V40.045Zm3.284,5.517V16.139a2.02,2.02,0,0,1,1.97-1.97h35.2V47.663h-35.2A2.046,2.046,0,0,1,13.566,45.562Zm38.223,8.406a.848.848,0,0,1-.788.788H18.82a.788.788,0,1,1,0-1.576H51A.848.848,0,0,1,51.789,53.968ZM46.4,51.21H23.286V49.5H46.4ZM63.217,45.43a4.149,4.149,0,0,1-4.2,4.2H53.1a.565.565,0,0,1-.525-.525v-.525h0V13.25h0v-.525A.565.565,0,0,1,53.1,12.2h5.911a4.149,4.149,0,0,1,4.2,4.2Z" transform="translate(-0.3 -5.5)" fill="#5c5c5c"/>
    </g>
    <g id="Grupo_488" data-name="Grupo 488" transform="translate(19.477 17.584)">
        <path id="Caminho_153" data-name="Caminho 153" d="M15.951,16.67h24.3a1.015,1.015,0,0,0,1.051-.919A1.036,1.036,0,0,0,40.251,14.7h-24.3A1.036,1.036,0,0,0,14.9,15.751,1.273,1.273,0,0,0,15.951,16.67Z" transform="translate(-14.9 -14.7)" fill="#5c5c5c"/>
    </g>
    <g id="Grupo_489" data-name="Grupo 489" transform="translate(19.477 22.313)">
        <path id="Caminho_154" data-name="Caminho 154" d="M15.951,20.4h24.3a1.051,1.051,0,0,0,0-2.1h-24.3A1.036,1.036,0,0,0,14.9,19.351C15.031,20.008,15.425,20.4,15.951,20.4Z" transform="translate(-14.9 -18.3)" fill="#5c5c5c"/>
    </g>
    <g id="Grupo_490" data-name="Grupo 490" transform="translate(19.477 27.304)">
        <path id="Caminho_155" data-name="Caminho 155" d="M15.951,24.2h24.3a1.051,1.051,0,0,0,0-2.1h-24.3A1.036,1.036,0,0,0,14.9,23.151C15.031,23.676,15.425,24.2,15.951,24.2Z" transform="translate(-14.9 -22.1)" fill="#5c5c5c"/>
    </g>
    <g id="Grupo_491" data-name="Grupo 491" transform="translate(19.477 32.164)">
        <path id="Caminho_156" data-name="Caminho 156" d="M15.951,27.9h24.3a1.051,1.051,0,0,0,0-2.1h-24.3A1.036,1.036,0,0,0,14.9,26.851C15.031,27.508,15.425,27.9,15.951,27.9Z" transform="translate(-14.9 -25.8)" fill="#5c5c5c"/>
    </g>
    <g id="Grupo_492" data-name="Grupo 492" transform="translate(19.477 37.155)">
        <path id="Caminho_157" data-name="Caminho 157" d="M15.951,31.7h24.3a1.051,1.051,0,0,0,0-2.1h-24.3A1.036,1.036,0,0,0,14.9,30.651C15.031,31.308,15.425,31.7,15.951,31.7Z" transform="translate(-14.9 -29.6)" fill="#5c5c5c"/>
    </g>
    <g id="Grupo_493" data-name="Grupo 493" transform="translate(19.477 42.147)">
        <path id="Caminho_158" data-name="Caminho 158" d="M41.3,34.451A1.036,1.036,0,0,0,40.251,33.4h-24.3a1.051,1.051,0,1,0,0,2.1h24.3A1.036,1.036,0,0,0,41.3,34.451Z" transform="translate(-14.9 -33.4)" fill="#5c5c5c"/>
    </g>
    </g>
</svg>