<svg id="レイヤー_1" data-name="レイヤー 1" xmlns="http://www.w3.org/2000/svg" viewBox="0 0 680.11 145.5"><defs><style>.cls-1{fill:#c00;}.cls-2{fill:#221714;}</style></defs><title>hondalogo</title><path class="cls-1" d="M534.5,80V69.68l10.41-1.19c3.62-.43,5.17-3.74,5.6-4.5l26-42.35c2.12-3.32.06-6.27-2.68-6.58l-13.7-1.58V3h59.3c3.31,0,5.43,2.3,6.82,4.26l34.63,52.93c2.72,4.26,4.82,7.57,8.29,8l10.9,1.21V80H613.46V69.58l8.46-1c4.06-.46,7.38-2.31,4.06-7.25l-3.2-4.85h-47.3l-3.62,5.89c-2.27,3.6,0,5.75,3.46,6.21l8.48,1V80H534.5M584,42.83h29.91l-15.1-23.75L584,42.83"/><path class="cls-1" d="M490.31,3H414.06V13.48l9.59,1c3.53.53,5,3.11,5,6.6V62.49c0,2.87-1.2,5.59-4.36,6.05L414,69.86V80l76.29.05c35.12,0,50.21-17.07,50.21-39.61,0-20.26-15.09-37.4-50.21-37.4M478.55,65.23H458.89V17.73h19.66c18.74,0,26.63,4.36,26.63,23.71,0,19.51-7.89,23.79-26.63,23.79"/><path class="cls-1" d="M0,80H61.7V69.74l-10.56-1.2c-2.41-.32-4.84-1.83-4.84-7V49.17H93.79V61c0,3.5-.59,6.81-4.71,7.27L78.35,69.43V80h61.7V69.43l-10.89-1.21c-2.11-.3-4.54-2-4.54-6.34V21.81c0-4.08,1.49-6.84,4.69-7.12l10.74-1.21V3H78.35V13.34l10.73,1.35c3.64.46,4.71,3.33,4.71,7.12v12H46.3V21.64c0-4.54,1.81-6.67,5-7L61.7,13.48V3H.14V13.48l10.3,1.21c4.1.46,5.15,3.48,5,7.4v39c0,4.35-1.21,6.95-5.14,7.41L0,69.74V80"/><path class="cls-1" d="M143.08,41.13C143.08,17,162.59,0,206.13,0c43.28,0,62.8,17,62.8,41.13,0,24.8-19.52,41.59-62.8,41.59-43.54,0-63-16.79-63-41.59M206,14.84c-17.52,0-27.5,6.52-27.5,26.46,0,20.27,10,26.78,27.5,26.78s27.54-6.51,27.54-26.78c0-19.94-10-26.46-27.54-26.46"/><path class="cls-1" d="M272.34,80h49.3V69.74l-10.59-1.2c-3-.32-4.84-2.86-4.84-6.36V23l41,54a8.37,8.37,0,0,0,6.37,3h38.68V21.64c0-2.75.71-6.48,4.68-7l10.75-1.21V3H358.39V13.34l10.76,1.35c3.77.46,4.68,3.63,4.68,7.24V60.06L333.13,6.38A7.66,7.66,0,0,0,326.79,3H272.34V13.48l10.29,1.21c3.62.54,5,2.38,5,7.4v39c0,4.61-1.26,6.82-5.14,7.41l-10.13,1.2V80"/><polygon class="cls-2" points="24.97 112.84 40.6 112.84 40.6 144.87 46.26 144.87 46.26 112.84 61.7 112.84 61.7 108.58 24.97 108.58 24.97 112.84"/><path class="cls-2" d="M84.46,116.46c-5,0-9.06,2-11.52,5.59V108.58H67.47v36.31h5.47V132c0-8.66,5.54-11.75,10.71-11.75,5.47,0,8.37,3.18,8.37,9.19v15.48h5.45V129.15C97.47,121,92.85,116.46,84.46,116.46Z"/><path class="cls-2" d="M217.69,119.3c-2.9-2.62-7.19-4-12.74-4-5.3,0-9.65,1.43-12.59,4.15A14.32,14.32,0,0,0,188,130.41c0,4.8,1.48,8.55,4.37,11.14s7.14,3.94,12.59,3.94c11,0,17-5.36,17-15.08C222,125.62,220.54,121.88,217.69,119.3Zm-1.47,11.11A10.46,10.46,0,0,1,205,141.55a11.09,11.09,0,0,1-8.34-3.2,11.28,11.28,0,0,1-2.84-7.94c0-7,4.17-11.13,11.18-11.13C212.11,119.28,216.22,123.34,216.22,130.41Z"/><path class="cls-2" d="M380.36,119.3c-2.9-2.62-7.2-4-12.75-4-5.3,0-9.66,1.43-12.62,4.15a14.24,14.24,0,0,0-4.41,10.91c0,9.72,6.05,15.08,17,15.08,5.45,0,9.7-1.32,12.63-3.94s4.38-6.34,4.38-11.14S383.19,121.88,380.36,119.3Zm-21.13,3.08a11.3,11.3,0,0,1,8.38-3.1c7.18,0,11.31,4.06,11.31,11.13a10.55,10.55,0,0,1-11.31,11.14c-6.85,0-11.27-4.37-11.27-11.14A11.23,11.23,0,0,1,359.23,122.38Z"/><path class="cls-2" d="M490.45,115.7c-5.48.43-8.38,3.88-10.23,7.24v-7h-4.89v29h5.55V129.67a9.31,9.31,0,0,1,3.15-6.81,10.84,10.84,0,0,1,7.41-2.6l2.68-.05V115.7h-.07A33.17,33.17,0,0,0,490.45,115.7Z"/><path class="cls-2" d="M169,108.55l-16.51,0v36.28h5.64V130.93h11.64c4.89,0,8.69-1.1,11.28-3.26a10.48,10.48,0,0,0,3.64-8.33,9.45,9.45,0,0,0-2.64-7C179.51,109.83,175.11,108.55,169,108.55Zm9.67,10.84c0,5.13-2.9,7.42-9.39,7.42H158.13V112.69H168.9C175.56,112.69,178.67,114.82,178.67,119.39Z"/><path class="cls-2" d="M462.42,113.29c-3.52-3.14-9-4.72-16.17-4.72H430.06v36.35h16.4c6.71,0,12-1.61,15.59-4.7s5.5-7.69,5.5-13.5S465.83,116.29,462.42,113.29Zm-26.63-.55h9.14c6.59,0,10.86,1.15,13.42,3.55,2.28,2.16,3.31,5.4,3.31,10.47,0,9.43-5.2,14-15.9,14h-10Z"/><path class="cls-2" d="M562.44,138.74v-12c0-3-.08-5.49-3-8-2.5-2.15-6.76-3.35-11-3.35s-11.86,1.26-13.26,7.25h6c.89-1.93,3.66-3.37,7.29-3.37,5.17,0,8.73,2.29,8.73,6.73v1h-4.62c-5,0-12.69.2-16.36,3.95a7.33,7.33,0,0,0-2.08,5.34c0,5.41,4.66,9.21,11.57,9.21,5.41,0,8.73-.91,11.69-4.87a40.64,40.64,0,0,0,.29,4.3h5.24A57,57,0,0,1,562.44,138.74ZM557.11,132c0,6.38-3.3,9.6-10.12,9.6-4.63,0-7.17-2-7.17-5.37a4,4,0,0,1,1.18-2.95c2.23-2.27,7.1-2.52,10.73-2.52h5.38Z"/><path class="cls-2" d="M606,115.4c-6,0-9.07,3.82-10.52,7a10.46,10.46,0,0,0-9.73-7,10.93,10.93,0,0,0-10.11,6.06s0-2.67-.23-5.52h-5.15c.16,2.16.18,4.8.18,7.07v21.9h5.45V131c0-7.93,4.36-11.54,8.68-11.54,4.5,0,6.61,3.41,6.61,10.73v14.74h5.43V131c0-4.22,1.12-7.36,3.31-9.38a8,8,0,0,1,5.21-2.16c2.62,0,4.35.88,5.41,2.74,1,1.71,1.44,4.32,1.44,8.25v14.48h5.45V128.29c0-4.34-1.1-7.66-3.26-9.82A11.18,11.18,0,0,0,606,115.4Z"/><path class="cls-2" d="M645.6,129.14l-9.08-1.87c-4.3-.86-6.2-2-6.2-4,0-2.64,3.4-4,8.36-4,4.07,0,7,1.09,7.91,3.35h5.92a7.28,7.28,0,0,0-4.33-5.59c-2.83-1.4-6.85-1.69-9.34-1.69a19.21,19.21,0,0,0-9.45,2.06c-2.7,1.54-4.51,3.82-4.51,6.75,0,3.83,2.81,6.13,7.9,7.24l8.6,1.83c3,.62,6,1.47,6,4,0,3-3.15,4.47-8.87,4.47-4.72,0-7.58-1.36-8.54-4.19h-6c1.14,6.61,8.06,8,13.85,8,10.29,0,15.3-3,15.3-9C653.17,132.38,651,130.26,645.6,129.14Z"/><path class="cls-2" d="M404.2,108c-3,0-5.56.31-7.74,2.09a7.84,7.84,0,0,0-2.39,3.64,19.39,19.39,0,0,0-.69,5.9h-5.94v3.93h5.94V144.9h5.55V123.58h10v-3.93h-10c0-4,.19-5.33,1.37-6.46.8-.75,2-1.27,4.63-1.27a16.56,16.56,0,0,1,4.33.49v-4A30,30,0,0,0,404.2,108Z"/><path class="cls-2" d="M265.88,128.78c-1.08,3.5-2.25,7.41-3.69,12.3h0c-1.17-3.9-2.41-8-3.69-12l-3.83-11.75,0,0h-8.42l-3.86,11.79c-1.29,3.94-2.53,8-3.68,12h0c-1.44-4.9-2.61-8.81-3.68-12.3l-3.57-11.47,0,0h-6l8.95,27.59,0,.05h8.43l4-12,1-3.05c.9-2.87,1.84-5.84,2.72-8.81h0c.92,3.1,1.91,6.2,2.85,9.21l.84,2.65,4,11.91,0,.05h8.43l8.94-27.55,0-.09h-6Z"/><path class="cls-2" d="M331.75,115.7c-5.47.43-8.37,3.88-10.22,7.24v-7h-4.89v29h5.55V129.67a9.31,9.31,0,0,1,3.15-6.81,10.83,10.83,0,0,1,7.4-2.6l2.69-.05V115.7h-.07A33.36,33.36,0,0,0,331.75,115.7Z"/><path class="cls-2" d="M305.42,119.36c-2.55-2.54-6.26-4-11-4-9.95,0-15.65,5.8-15.65,15.61,0,4.34,1.4,8,4.07,10.46s6.75,4.07,11.54,4.07a19,19,0,0,0,9.34-2.31,10.24,10.24,0,0,0,5-5.7h-6c-1.48,2.69-4.71,4.14-8.65,4.14a9.13,9.13,0,0,1-8.67-5.09,12.81,12.81,0,0,1-1.26-4.59h25.13v-1.67C309.26,125.56,308,121.89,305.42,119.36Zm-21.16,8.71a9.14,9.14,0,0,1,.31-1.61c1.18-4.65,4.57-7.23,9.72-7.23,6.64,0,9.14,4.64,9.25,8.84Z"/><path class="cls-2" d="M523.62,119.36c-2.54-2.54-6.25-4-11-4-9.94,0-15.65,5.8-15.65,15.61,0,4.34,1.41,8,4.07,10.46s6.75,4.07,11.54,4.07a19,19,0,0,0,9.34-2.31,10.2,10.2,0,0,0,5-5.7h-6c-1.47,2.69-4.71,4.14-8.65,4.14a9.1,9.1,0,0,1-8.66-5.09,12.42,12.42,0,0,1-1.26-4.59h25.12a25.16,25.16,0,0,0-.11-3.62A14.11,14.11,0,0,0,523.62,119.36Zm-21.16,8.71a9.14,9.14,0,0,1,.31-1.61c1.18-4.65,4.57-7.23,9.73-7.23,6.63,0,9.13,4.64,9.24,8.84Z"/><path class="cls-2" d="M130.73,119.36c-2.55-2.54-6.26-4-11-4-9.94,0-15.65,5.8-15.65,15.61,0,4.34,1.41,8,4.07,10.46s6.76,4.07,11.54,4.07a19,19,0,0,0,9.35-2.31,10.18,10.18,0,0,0,5-5.7h-6c-1.47,2.69-4.7,4.14-8.65,4.14a9.1,9.1,0,0,1-8.66-5.09,12.42,12.42,0,0,1-1.26-4.59h25.12v-1.67C134.56,125.56,133.27,121.89,130.73,119.36Zm-21.17,8.71a9.14,9.14,0,0,1,.31-1.61c1.19-4.65,4.57-7.23,9.73-7.23,6.64,0,9.13,4.64,9.24,8.84Z"/></svg>