<svg xmlns="http://www.w3.org/2000/svg" width="40" height="40" viewBox="0 0 100 100"><path fill="#85868D" d="M90.936 46.617H30.853c-.866 0-1.569.71-1.569 1.588v20.41c0 .854.67 1.558 1.515 1.586 13.601.478 15.261 6.676 15.294 6.815 2.836 10.304 12.205 17.5 22.773 17.5 13.035 0 23.64-10.744 23.64-23.948V48.205c0-.877-.702-1.588-1.57-1.588zM89.37 70.568c0 11.454-9.197 20.769-20.504 20.769-9.168 0-17.293-6.24-19.725-15.068-.067-.345-1.828-8.151-16.72-9.165v-17.31H89.37v20.774zM68.866 83.485c7.031 0 12.751-5.796 12.751-12.917 0-7.127-5.72-12.921-12.751-12.921-7.032 0-12.75 5.794-12.75 12.921 0 7.121 5.718 12.917 12.75 12.917zm0-22.659c5.301 0 9.615 4.371 9.615 9.742 0 5.368-4.314 9.739-9.615 9.739-5.3 0-9.614-4.371-9.614-9.739 0-5.371 4.314-9.742 9.614-9.742zm20.068-45.077h-7.617V9.428a1.58 1.58 0 0 0-1.57-1.591H68.07a1.58 1.58 0 0 0-1.569 1.591v6.321h-7.614c-5.188 0-9.41 4.278-9.41 9.537v5.876c0 5.259 4.223 9.537 9.41 9.537h30.047c5.189 0 9.409-4.278 9.409-9.537v-5.876c0-5.259-4.22-9.537-9.409-9.537zm-19.296-4.732h8.543v4.732h-8.543v-4.732zm25.57 20.145c0 3.506-2.815 6.357-6.274 6.357H58.887c-3.459 0-6.277-2.851-6.277-6.357v-1.348h42.599v1.348zm0-4.528H52.609v-1.348c0-3.506 2.818-6.357 6.277-6.357h30.047c3.459 0 6.274 2.851 6.274 6.357v1.348zM44.158 39.11V25.286c0-5.259-4.221-9.537-9.412-9.537h-4.719V11.55c0-.877-.702-1.589-1.566-1.589h-11.68c-.866 0-1.568.711-1.568 1.589v4.199h-4.718c-5.19 0-9.411 4.278-9.411 9.537V39.11c0 .878.702 1.589 1.566 1.589h1.001V51.65c0 5.574 4.473 10.108 9.976 10.108h8.944c.865 0 1.568-.711 1.568-1.588V40.699h18.449c.869 0 1.57-.711 1.57-1.589zM18.35 13.141h8.544v2.608H18.35v-2.608zm2.654 45.437h-7.376c-3.771 0-6.839-3.107-6.839-6.929v-10.95h14.216v17.879zm20.018-21.059H4.219V25.286c0-3.506 2.817-6.357 6.276-6.357h24.25c3.461 0 6.276 2.851 6.276 6.357v12.233z"/></svg>