<svg id="Header" xmlns="http://www.w3.org/2000/svg" width="36" height="36" viewBox="0 0 36 36">
  <g id="bt-meus-downloads">
    <g id="Bt-pasta-cheia">
        <g id="Icon-folder" transform="translate(0 10)">
          <g id="Grupo_4" data-name="Grupo 4" transform="translate(-9 -19)">
            <g id="Grupo_3" data-name="Grupo 3" transform="translate(9 19)">
              <path id="Caminho_23" data-name="Caminho 23" d="M10.694,19h4.467a1.694,1.694,0,0,1,1.084.393l1.467,1.223h0a.339.339,0,0,0,.217.079H31.694a1.694,1.694,0,0,1,1.694,1.694v3.048a.339.339,0,0,0,.339.339h1.355a1.338,1.338,0,0,1,1.3,1.647L33.7,38.7A1.694,1.694,0,0,1,32.049,40H10.694A1.694,1.694,0,0,1,9,38.306V20.694H9A1.694,1.694,0,0,1,10.694,19Zm23.837,8.885h0a.339.339,0,0,0-.33-.417H14.988a.677.677,0,0,0-.654.5l-2.679,9.911a.339.339,0,0,0,.327.427h19.8a.339.339,0,0,0,.329-.26h0Zm-23.5-7.191h0a.339.339,0,0,0-.339.339h0V34.155a.135.135,0,0,0,.266.035h0L12.9,27.026a1.694,1.694,0,0,1,1.635-1.252H31.355a.339.339,0,0,0,.339-.339v-2.71a.339.339,0,0,0-.339-.339H17.806a1.694,1.694,0,0,1-1.084-.393l-1.467-1.223a.339.339,0,0,0-.217-.079H11.032Z" transform="translate(-9 -19)" fill="#fff"/>
            </g>
          </g>
        </g>
        <g id="notification">
          <circle id="Elipse_8" data-name="Elipse 8" cx="8" cy="8" r="8" transform="translate(17 6)" fill="#cd2b14"/>
          <g id="icon-seta" transform="translate(21 128.5)">
            <g id="Grupo_13" data-name="Grupo 13" transform="translate(0 -110.613) rotate(-90)">
              <path id="Caminho_26" data-name="Caminho 26" d="M6.875,3.195,1.611,3.189,3.625.823A.5.5,0,0,0,3.559.117a.52.52,0,0,0-.722.064L.119,3.372a.495.495,0,0,0,0,.643L2.836,7.206a.521.521,0,0,0,.723.065.5.5,0,0,0,.066-.707L1.607,4.194,6.874,4.2a.5.5,0,1,0,0-1Z" transform="translate(0 0)" fill="#fff" stroke="#fff" stroke-width="1"/>
            </g>
          </g>
        </g>
     
    </g>
  </g>
</svg>
