<svg xmlns="http://www.w3.org/2000/svg" viewBox="0 0 48 48"><defs><style>.cls-1{fill:none}.cls-2{clip-path:url(#clip-path)}.cls-3{fill:#c00}</style><clipPath id="clip-path"><path class="cls-1" d="M0 0h48v48H0z"/></clipPath></defs><g id="Camada_2" data-name="Camada 2"><g class="cls-2" id="Camada_1-2" data-name="Camada 1"><g id="Grupo_379" data-name="Grupo 379"><g id="Grupo_380" data-name="Grupo 380"><path id="Caminho_34" data-name="Caminho 34" class="cls-1" d="M13.44 22.74l20.49-.1a34.13 34.13 0 0 0 8.52-1.36l-.13-.12a5.58 5.58 0 0 1-.58-.61A8.74 8.74 0 0 1 40.3 18c-.07-.2-.18-.48-.32-.83a3.47 3.47 0 0 1-1.87.36H25.63c-7.93 0-16.79-.05-17.63-.24a4.64 4.64 0 0 1-1.13-.41c-.19.46-.33.83-.43 1.09a5 5 0 0 1-.28.63l-.08.18A8.36 8.36 0 0 1 5 20.55c-.14.17-.26.31-.38.43a34.65 34.65 0 0 0 8.82 1.76z"/><path id="Caminho_35" data-name="Caminho 35" class="cls-1" d="M33.41 25.23a.19.19 0 0 0 .05.23 1.93 1.93 0 0 0 1.3.32c1.83 0 6.56-2 6.6-2a1.62 1.62 0 0 0 .78-.85.92.92 0 0 0 0-.52 36.22 36.22 0 0 1-7.46 1.24z"/><path id="Caminho_36" data-name="Caminho 36" class="cls-1" d="M20.23 31.85h6.41a1 1 0 0 0 .8-.22.36.36 0 0 0 .07-.24v-1.56h-7.77v1.46c.01.21.08.56.49.56z"/><path id="Caminho_37" data-name="Caminho 37" class="cls-1" d="M5.49 17.78l-.16-.88a1.67 1.67 0 0 0-1.72-1.44 4.32 4.32 0 0 0-2.43 1.06l-.05.05s-.18.16-.16.32.27.48.93.81a5.35 5.35 0 0 0 3.41.45c.07-.15.13-.25.18-.37z"/><path id="Caminho_38" data-name="Caminho 38" class="cls-1" d="M30.41 27.49l1.23-.65c.53-.27.9-.48 1.16-.63a1.29 1.29 0 0 1-.23-1.51l.06-.08.78-1-19.63.09.84 1.05a1.25 1.25 0 0 1-.27 1.54 9.37 9.37 0 0 0 1.36 1.16c.62.3 6 .42 13.44.29a2.91 2.91 0 0 0 1.26-.26z"/><path id="Caminho_39" data-name="Caminho 39" class="cls-1" d="M8.22 16.34c1 .24 18.46.24 29.93.19a2.56 2.56 0 0 0 1.44-.28 35.31 35.31 0 0 0-1.85-3.69l-.06-.1c-1.12-1.91-3-2.87-5.73-2.87H13.44c-1.9 0-3.17.83-4.37 2.87l-.06.1A34.41 34.41 0 0 0 7.28 16a2.89 2.89 0 0 0 .94.34z"/><path id="Caminho_40" data-name="Caminho 40" class="cls-1" d="M5.84 23.9s4.76 2 6.58 2a2 2 0 0 0 1.31-.31.2.2 0 0 0 0-.24l-1.29-1.6a36.71 36.71 0 0 1-7.33-1.51A1.07 1.07 0 0 0 5 23a1.74 1.74 0 0 0 .84.9z"/><path id="Caminho_41" data-name="Caminho 41" class="cls-1" d="M46.06 16.9H46a4.28 4.28 0 0 0-2.38-1.06c-.92-.08-2.4.67-2.56 1.46l.15.4a10.11 10.11 0 0 0 .48 1.06 6.59 6.59 0 0 0 3.6-.68c.66-.33.91-.64.93-.81a.5.5 0 0 0-.16-.37z"/><path id="Caminho_42" data-name="Caminho 42" class="cls-1" d="M34.13 31.71a2.81 2.81 0 0 0 2.18 1.14 19.53 19.53 0 0 0 5.11-.21 16.33 16.33 0 0 0-.67-2.78c-.47-.27-3.02.34-6.62 1.85z"/><path id="Caminho_43" data-name="Caminho 43" class="cls-1" d="M5.76 29.32a17.86 17.86 0 0 0-.67 2.78 19.07 19.07 0 0 0 5.11.21 2.77 2.77 0 0 0 2.18-1.14c-3.72-1.56-6.16-2.12-6.62-1.85z"/><path id="Caminho_44" data-name="Caminho 44" class="cls-1" d="M43.14 22.9a2 2 0 0 1-.07.35 2.68 2.68 0 0 1-1.32 1.47c-.22.09-5 2.07-7 2.07a4.27 4.27 0 0 1-.87-.08 15.56 15.56 0 0 1-1.82 1l-1.22.64a3.82 3.82 0 0 1-1.72.44h-.67v2.41a1.32 1.32 0 0 1-.26 1 1.84 1.84 0 0 1-1.56.61h-6.4a1.48 1.48 0 0 1-1.46-1.5v-2.49a11.16 11.16 0 0 1-3.62-.44 10.46 10.46 0 0 1-1.8-1.59 4.7 4.7 0 0 1-.92.09c-2 0-6.76-2-7-2.06a2.67 2.67 0 0 1-1.34-1.48 2.08 2.08 0 0 1 .1-1.43l-.3-.1a2.94 2.94 0 0 0-.32 1.13c-.25 3.16-.77 10.92-.14 14.54a.86.86 0 0 0 .53.66 4.55 4.55 0 0 0 3.77.08.66.66 0 0 0 .35-.6v-3.25h30.56v3.25a.68.68 0 0 0 .35.6 4.55 4.55 0 0 0 3.77-.07.89.89 0 0 0 .53-.67c.63-3.63.11-11.38-.15-14.54zM13.4 31.39a3.75 3.75 0 0 1-3.17 1.93h-2c-3.46 0-3.83-.43-4-.63a.66.66 0 0 1-.16-.57 17 17 0 0 1 .79-3.29c.21-.42.8-1.64 8.18 1.5a.72.72 0 0 1 .39.43.76.76 0 0 1-.03.63zm28.86 1.88c-.18.2-.54.63-4 .63h-2a3.75 3.75 0 0 1-3.14-1.9.76.76 0 0 1-.06-.59.72.72 0 0 1 .4-.44c7.37-3.13 8-1.92 8.16-1.52a16.4 16.4 0 0 1 .8 3.32.69.69 0 0 1-.16.5z"/><path id="Caminho_45" data-name="Caminho 45" class="cls-3" d="M13.07 30.36c-7.38-3.13-8-1.92-8.18-1.49a17 17 0 0 0-.79 3.29.69.69 0 0 0 .16.57c.17.2.53.63 4 .63h2a3.74 3.74 0 0 0 3.17-1.93.74.74 0 0 0-.33-1zm-2.87 2a19.07 19.07 0 0 1-5.11-.21 17.86 17.86 0 0 1 .67-2.78c.46-.27 2.9.29 6.63 1.85a2.8 2.8 0 0 1-2.19 1.14z"/><path id="Caminho_46" data-name="Caminho 46" class="cls-3" d="M41.61 29.38c-.19-.4-.79-1.61-8.16 1.52a.72.72 0 0 0-.4.44.76.76 0 0 0 .06.59 3.75 3.75 0 0 0 3.16 1.91h2c3.45 0 3.82-.43 4-.63a.73.73 0 0 0 .16-.57 17.12 17.12 0 0 0-.82-3.26zm-5.3 3.47a2.78 2.78 0 0 1-2.18-1.14c3.6-1.51 6.15-2.12 6.62-1.85a16.33 16.33 0 0 1 .67 2.78 19.53 19.53 0 0 1-5.11.21z"/><path id="Caminho_47" data-name="Caminho 47" class="cls-3" d="M46.66 16.11a5.12 5.12 0 0 0-2.93-1.32h-.06a4 4 0 0 0-3.08 1.32 36.67 36.67 0 0 0-2-4.07l-.06-.1c-1.34-2.26-3.53-3.4-6.67-3.37H13.44c-2.23 0-3.83 1-5.2 3.36l-.06.1a36.39 36.39 0 0 0-1.9 3.8l-.15.35a2.6 2.6 0 0 0-2.61-1.73h-.06a5.23 5.23 0 0 0-2.94 1.33A1.49 1.49 0 0 0 0 17c.06.62.56 1.17 1.48 1.63a6.13 6.13 0 0 0 2.79.66h.46a5.75 5.75 0 0 1-.46.64 4.34 4.34 0 0 1-.47.49 3.6 3.6 0 0 0-1.16 2.47c-.26 3.21-.78 11.07-.13 14.81a1.84 1.84 0 0 0 1.12 1.42 6.39 6.39 0 0 0 2.48.54 4.42 4.42 0 0 0 2.08-.49 1.71 1.71 0 0 0 .89-1.5v-2.28h28.59v2.24a1.67 1.67 0 0 0 .89 1.5 4.42 4.42 0 0 0 2.08.49 6.38 6.38 0 0 0 2.48-.53 1.89 1.89 0 0 0 1.13-1.42c.64-3.75.12-11.6-.14-14.81A3.6 3.6 0 0 0 43 20.39a3.71 3.71 0 0 1-.47-.5 1.47 1.47 0 0 1-.1-.13 7.57 7.57 0 0 0 3.28-.76c.92-.47 1.41-1 1.47-1.63a1.45 1.45 0 0 0-.52-1.26zM9 12.55l.06-.09c1.2-2.05 2.47-2.88 4.37-2.88H32c2.68 0 4.61 1 5.73 2.88l.06.09a39.72 39.72 0 0 1 1.85 3.69 2.48 2.48 0 0 1-1.44.29c-11.47 0-28.91 0-29.93-.19a3 3 0 0 1-1-.35A38.23 38.23 0 0 1 9 12.55zM1.9 17.7c-.66-.33-.91-.64-.93-.82s.16-.31.16-.31l.06-.05a4.26 4.26 0 0 1 2.42-1.06 1.66 1.66 0 0 1 1.72 1.44l.16.88c0 .12-.11.24-.18.37a5.22 5.22 0 0 1-3.41-.45zM5 20.55a8.36 8.36 0 0 0 1.08-1.73l.08-.19a4.91 4.91 0 0 0 .28-.63l.43-1.1a4.26 4.26 0 0 0 1.13.42c.84.2 9.7.25 17.63.25h12.48a3.46 3.46 0 0 0 1.89-.39c.14.35.25.63.32.83a8.9 8.9 0 0 0 1.45 2.54 4.76 4.76 0 0 0 .58.61l.12.12a34.13 34.13 0 0 1-8.52 1.36l-20.49.1A34.9 34.9 0 0 1 4.62 21c.12-.12.24-.26.38-.43zm37.15 2.39a1.74 1.74 0 0 1-.78.85s-4.78 2-6.6 2a2.09 2.09 0 0 1-1.31-.32.23.23 0 0 1-.05-.24l1.27-1.57a35.65 35.65 0 0 0 7.47-1.24 1 1 0 0 1 0 .53zm-22.41 6.88h7.75v1.56a.34.34 0 0 1-.06.24 1.11 1.11 0 0 1-.8.23h-6.4c-.41 0-.48-.36-.49-.57v-1.45zm-4.07-2.3a8.28 8.28 0 0 1-1.36-1.15 1.26 1.26 0 0 0 .27-1.55l-.84-1 19.63-.1-.78 1-.06.08a1.28 1.28 0 0 0 .23 1.51l-1.16.63-1.23.64a2.92 2.92 0 0 1-1.3.34c-7.42.14-12.83 0-13.44-.29zM5.16 22.2a36.73 36.73 0 0 0 7.33 1.52l1.3 1.6a.22.22 0 0 1 0 .23 2 2 0 0 1-1.31.32c-1.83 0-6.56-2-6.58-2A1.7 1.7 0 0 1 5 23a1.07 1.07 0 0 1 .13-.82zm38.13 15.28a.89.89 0 0 1-.53.67 4.55 4.55 0 0 1-3.77.07.68.68 0 0 1-.35-.6v-3.25H8.11v3.25a.66.66 0 0 1-.35.6A4.55 4.55 0 0 1 4 38.14a.86.86 0 0 1-.53-.66c-.62-3.62-.11-11.38.15-14.54a2.93 2.93 0 0 1 .31-1.13l.31.1a2 2 0 0 0-.11 1.43 2.65 2.65 0 0 0 1.35 1.48c.2.09 5 2.06 7 2.06a4.88 4.88 0 0 0 .93-.09 10.1 10.1 0 0 0 1.8 1.59 11.33 11.33 0 0 0 3.61.44v2.47a1.49 1.49 0 0 0 1.39 1.57h6.48a1.84 1.84 0 0 0 1.56-.61 1.39 1.39 0 0 0 .27-1v-2.41h.66a4 4 0 0 0 1.72-.44l1.23-.64a18 18 0 0 0 1.81-1 5.14 5.14 0 0 0 .88.08c2 0 6.76-2 7-2.08a2.63 2.63 0 0 0 1.32-1.46 1.53 1.53 0 0 0 .07-.36.09.09 0 0 0 0 .05c.25 3.17.77 10.92.14 14.54zm2-19.45a6.59 6.59 0 0 1-3.6.67 6.75 6.75 0 0 1-.48-1.06l-.15-.39c.16-.8 1.64-1.55 2.56-1.46A4.18 4.18 0 0 1 46 16.85s.18.15.16.31-.26.49-.92.82z"/></g></g></g></g></svg>