<svg id="Layer_4" xmlns="http://www.w3.org/2000/svg" viewBox="0 0 40 40"><style>.st0{fill:#848484}</style><path class="st0" d="M38.1 19.9c0-4.4-1.5-8.5-4.1-11.6h2C32.4 3.3 26.5 0 19.9 0S7.3 3.3 3.7 8.2H6c-2.6 3.2-4.1 7.2-4.1 11.6 0 4.5 1.6 8.6 4.2 11.8H3.6c3.6 5 9.5 8.3 16.2 8.3s12.6-3.3 16.2-8.3h-2.2c2.7-3.1 4.3-7.2 4.3-11.7zm-6 11.4c-3 3.3-7.3 5.4-12.1 5.4s-9.1-2.1-12.1-5.4c-2.7-3-4.4-6.9-4.4-11.3s1.7-8.4 4.4-11.4c3-3.3 7.3-5.3 12-5.3s9 2.1 12 5.3c2.7 3 4.4 7 4.4 11.4.1 4.4-1.5 8.4-4.2 11.3z"/><path class="st0" d="M17.8 19.2c.8.5 1.5.7 2.3.7.9 0 1.8-.3 2.6-1 .7-.6 1.8-1.8 2-4 .2-2.1.4-3 .4-3.1 0-.1.2-1.5-.6-2.6-.4-.5-1-.9-1.7-1-.3-.5-.8-1.1-1.8-1.1-2.8-.2-4.6.6-5.5 2.2-1 1.8-.4 3.8-.3 4.3 0 .7.3 4.2 2.6 5.6zm-1-9.2c.5-1 1.7-1.5 3.5-1.5h.6c.1 0 .5 0 .5.4v.7l.7.1c.5.1.9.2 1.2.5.4.5.3 1.3.3 1.3 0 .1-.3 1-.5 3.2-.2 1.7-1.1 2.7-1.5 3-.7.6-1.7 1-3.1.2-1.8-1.2-1.9-4.5-1.9-4.6V13c0 .1-.6-1.6.2-3zm11.3 11.8c-1.9-1.9-3.6-1.6-3.8-1.5h-.2l-.1.1s-2 1.5-4 1.5-4.1-1.5-4.1-1.5l-.2-.1h-.3c-1.7.1-3 .7-3.8 1.7-1.2 1.4-1.1 3.1-1.1 3.2v3h.7c.9.9 4.1 3.8 8.5 3.8h.3c4.5-.2 7.7-2.9 8.5-3.7h.8v-3.1c.2-.3.2-1.8-1.2-3.4zm-.2 4.9l-.1.2s-3.1 3.3-7.7 3.5c-4.6.2-7.9-3.5-7.9-3.6l-.1-.1V25s-.1-1.2.7-2.1c.6-.6 1.4-1 2.6-1.1.7.4 2.7 1.6 4.8 1.6 2.1 0 4.1-1.2 4.7-1.6.3 0 1.2.1 2.2 1.1 1 1.1.9 2.1.9 2.2l-.1 1.6z"/></svg>