<svg xmlns="http://www.w3.org/2000/svg" width="20" height="20" viewBox="0 0 396.85 396.851"><path fill="#c00" d="M314.39 176.177L154.405 19.741c-5.876-6.104-13.248-9.136-22.073-9.136-8.846 0-16.217 3.032-22.093 9.136L91.593 37.764c-6.063 5.917-9.074 13.123-9.074 21.615 0 8.348 3.011 15.615 9.074 21.886l119.248 116.548L91.593 314.61c-6.063 5.938-9.095 13.144-9.095 21.636 0 8.326 3.032 15.615 9.095 21.864l18.646 18.023c6.042 5.938 13.413 8.887 22.072 8.887 8.68 0 16.051-2.949 22.094-8.887L314.39 219.677c6.042-6.25 9.074-13.538 9.074-21.864 0-8.493-3.031-15.698-9.074-21.636z"/></svg>