<svg id="Camada_1" xmlns="http://www.w3.org/2000/svg" viewBox="0 0 33.4 35.3" width="40" height="40"><style>.st0{fill:#5e5e5e}</style><path class="st0" d="M28.2 34.8c-1.2 0-2.3-.5-3.2-1.3l-6.7-6.7c-.1-.1-.2-.3-.2-.4s0-.3.1-.4l1.4-1.4L18 23c-.2-.2-.2-.6 0-.8l1.9-1.9c.2-.2.6-.2.8 0l1.6 1.6 1.4-1.4c.2-.2.5-.2.8 0l.1.1 6.7 6.7c.8.8 1.3 2 1.3 3.2 0 1.2-.5 2.3-1.3 3.2-.7.6-1.9 1.1-3.1 1.1zm-8.8-8.5l6.4 6.4c.6.6 1.5 1 2.4 1 .9 0 1.8-.4 2.4-1 .6-.6 1-1.5 1-2.4s-.4-1.8-1-2.4l-6.4-6.4-1.4 1.5c-.2.2-.6.2-.8 0l-1.6-1.6-1.1 1.1 1.6 1.6c.2.2.2.6 0 .8l-1.5 1.4zm-8.6-11c-.1 0-.3-.1-.4-.2l-4.6-4.6c-.2.1-.4.1-.7.1-.1 0-.3-.1-.4-.2-.1-.2-.4-.6-.7-1.2C.7 4.5.8 4.5 1.2 4l.8-.7c.4-.4.5-.5 5.2 2.7.5.4 1 .7 1.1.8.1.1.2.2.2.4.1.3 0 .6-.1.7l4.6 4.6c.2.2.2.6 0 .8l-1.9 1.9c0 .1-.1.1-.3.1zM5.7 9.1c.1 0 .3.1.4.2l4.7 4.7 1.1-1.1-4.7-4.7C7 8 7 7.7 7.1 7.5l.1-.1c-.2-.1-.4-.3-.7-.5-1-.7-3.2-2.2-4-2.7l-.3.4c.4.8 2 3 2.7 4 .1.3.3.5.4.7l.1-.1c.1-.1.2-.1.3-.1z"/><path class="st0" d="M4.1 33.2c-1 0-2-.4-2.8-1.2-.7-.7-1.2-1.7-1.2-2.8 0-1.1.4-2 1.2-2.8L17.9 9.9c-.6-2.6.2-5.3 2.1-7.2C21.9.8 24.8 0 27.5.7c.2.1.3.2.4.4.1.2 0 .4-.1.5L24 5.4l.9 3.4 3.4.9L32 5.9c.1-.1.3-.2.5-.1s.3.2.4.4c.7 2.7-.1 5.5-2 7.5-2 2-4.8 2.7-7.5 2L6.9 32.1c-.7.7-1.7 1.1-2.8 1.1zM25.5 1.6c-1.7 0-3.4.7-4.7 1.9-1.7 1.7-2.3 4.2-1.7 6.5.1.2 0 .4-.2.6l-.1.1L2.1 27.3c-.5.5-.8 1.3-.8 2 0 .8.3 1.5.8 2 1.1 1.1 2.9 1.1 4 0l16.7-16.7c.1-.1.4-.2.6-.2 2.4.8 5 .2 6.7-1.6 1.4-1.4 2.1-3.4 1.9-5.4l-3.3 3.3c-.1.1-.3.2-.5.1l-4-1.1c-.2-.1-.3-.2-.4-.4l-1.1-4c-.1-.2 0-.4.1-.5l3.3-3.3c-.1.1-.4.1-.6.1zM1.7 26.9zm2.7 4c-1 0-1.8-.8-1.8-1.8s.8-1.8 1.8-1.8 1.8.8 1.8 1.8-.8 1.8-1.8 1.8zm0-2.6c-.4 0-.7.3-.7.7 0 .4.3.7.7.7.4 0 .7-.3.7-.7s-.3-.7-.7-.7z"/></svg>