<svg xmlns="http://www.w3.org/2000/svg" width="40" height="40" viewBox="0 0 100 100"><path fill="#ed1c24" d="M49.865 2.245C23.112 2.245 1.35 24.009 1.35 50.762c0 .415.051.814.062 1.227-.018.104-.062.2-.062.308 0 .184.053.35.103.515 1.086 25.802 22.353 46.469 48.413 46.469 26.754 0 48.517-21.766 48.517-48.518-.001-26.754-21.764-48.518-48.518-48.518zm33.647 18.883H65.968c-.551 0-1.068.251-1.408.681-.17.21-4.079 5.153-4.903 9.7-.491.99-5.725 1.576-11.859.99.318-8.282.942-17.034 1.568-19.49 2.648-.739 8.367-3.177 13.157-5.3 8.229 2.423 15.457 7.147 20.989 13.419zm-62.587-4.641c1.667 6.504 3.115 13.478 2.896 14.632-.441.74-1.141 2.675-2.442 6.322-1.328 3.721-3.999 11.218-5.25 13.046H4.977c.083-13.622 6.265-25.812 15.948-34zM6.206 61.07c4.214.586 8.644 1.722 9.635 2.877 1.14 1.374 3.691 11.694 5.7 21.614A44.944 44.944 0 0 1 6.206 61.07zm19.541 27.5c0-.115.024-.231.003-.353-1.057-5.518-4.695-23.744-7.16-26.621-2.369-2.764-10.039-3.907-13.088-4.262a43.931 43.931 0 0 1-.369-3.23h11.614c2.128 0 3.406-2.454 8.04-15.449.865-2.424 1.845-5.173 2.137-5.676.372-.615 1.469-2.504-2.888-18.884 7.315-5.168 16.214-8.233 25.83-8.233 2.243 0 4.433.219 6.589.539-3.993 1.699-7.526 3.106-8.253 3.215-1.894 0-3.263 0-4.076 24.432a1.806 1.806 0 0 0 1.577 1.855c1.772.225 4.395.488 7.081.488 4.81 0 9.81-.84 10.427-4.227.508-2.797 2.667-6.036 3.663-7.417h19.521c5.25 7.349 8.376 16.316 8.376 26.015 0 1.218-.089 2.417-.184 3.612-3.735-5.213-9.307-12.547-11.624-13.419-2.413-.905-24.709-1.092-28.226 1.981-2.128 1.865-9.974 10.689-10.478 13.214-.185.921-.673 14.049 4.551 15.614 1.902.572 4.536.169 7.077-.213 1.274-.191 3.102-.459 3.991-.406.021 2.911-1.805 13.937-3.791 24.034-2.036.284-4.104.483-6.222.483-8.879.001-17.143-2.626-24.118-7.092zm34.164 5.919c2.952-15.155 4.049-23.662 3.245-25.265-1.132-2.253-4.228-1.784-7.804-1.249-1.961.294-4.393.661-5.498.328-1.508-.633-2.484-9.218-2.07-11.362.515-1.473 6.797-9.064 9.32-11.27 2.416-1.761 22.106-2.194 24.552-1.345 1.503.753 7.504 8.524 12.202 15.287.006.009.015.015.023.023C90.407 76.889 77 90.564 59.911 94.489z"/></svg>