<svg xmlns="http://www.w3.org/2000/svg" width="40" height="40" viewBox="0 0 40 40"><path fill="none" d="M12.903 26.684l-.811-.506h-.202l-.607-.303-5.773-3.344-.203-.101h-.709l-.405.709-.101.305.405.811.608.303.81.406 3.14 1.619.203.102h.405l.811.102h.101l1.621.305.709.1.81.102a3.168 3.168 0 0 0-.709-.506l-.103-.104zm-5.976.304l.81-.203c-.202-.203-.405-.404-.709-.404a.907.907 0 0 0-.912.91c0 .508.405.912.912.912.405 0 .811-.303.912-.811l-.912.305h-.101c-.203 0-.304-.102-.405-.305 0-.101.203-.302.405-.404z"/><path fill="none" d="M5.003 25.469c-.506.506-.811 1.215-.811 1.924s.304 1.418.811 1.924c.506.508 1.215.811 1.924.811s1.417-.303 1.924-.811c.506-.506.709-1.113.81-1.822l-.709-.102h-.1l-.304.102c0 .912-.708 1.723-1.62 1.723a1.6 1.6 0 0 1-1.621-1.621c0-.709.405-1.316 1.013-1.52l-1.114-.607c-.102-.103-.102-.103-.203-.001z"/><circle fill="none" cx="21.105" cy="25.468" r=".304"/><path fill="none" d="M15.941 24.354l-.912.203h-.202l-1.114-.404c-.102 0-.102-.102-.102-.102h-.101l-2.938-1.621c0 .102 0 .102.102.203.203.709.81 1.621 2.026 2.836.203.203.506.506.81.709l2.734 1.621c.406.101.811.101 1.216.101-.202-1.014-.101-2.33 0-2.938l-1.519-.608zm-1.114-2.227c.405-.508 1.012-1.014 1.721-1.621L15.536 20l-.811-.405-4.861-1.721c-.405 0-1.114-.406-2.228-1.014-.101 0-.203-.102-.203-.102-.405-.202-.709-.304-1.114-.506-.304-.102-.608-.203-.811-.405-.202-.102-.303-.102-.404-.202-.102 0-.304-.102-.405-.203-.304.102-.709.102-1.013.102.203.202.608.404 1.013.607.101.102.203.102.304.203.203.101.304.202.506.303.304.203.709.508 1.114.71.203.202.507.405.811.607 1.012.709 2.127 1.418 2.836 2.026 1.519 1.113 3.645 1.822 4.557 2.127zm-4.76-4.962c.911.101 3.848 1.215 4.962 1.619l2.532-.607s0-.101-.102-.202c-.101-.101-.304-.405-.506-.607-.506.304-1.722.81-3.342.304-.81-.304-1.417-.709-2.025-1.014-.811-.506-1.418-.911-2.532-.911-.912 0-1.823-.101-2.633-.202.405.202.912.404 1.418.709.911.302 1.924.809 2.228.911zm-.101 5.974c-.811-.607-1.824-.91-2.938-.91h-.405l4.254 2.531c-.405-.608-.709-1.217-.911-1.621zm-.405 6.584c-.608.709-1.519 1.012-2.431 1.115h-.102c-.912 0-1.722-.305-2.431-1.014-.709-.607-1.013-1.52-1.114-2.432 0-.912.304-1.822 1.013-2.531l-.405-.203c-.101 0-.101-.102-.203-.201l-.405-.811c-1.012.91-1.62 2.328-1.519 3.746 0 1.418.608 2.635 1.621 3.646a5.493 5.493 0 0 0 3.646 1.418c1.418 0 2.633-.607 3.646-1.619a5.012 5.012 0 0 0 1.418-3.039l-1.621-.305c-.202.913-.506 1.62-1.113 2.23zM1.56 20.506c1.013-1.013 2.025-1.722 3.14-2.228.405-.202.81-.404 1.114-.506-.405-.305-.81-.507-1.114-.709-1.419.607-2.431 1.924-3.14 3.443zM26.372 7.441s-.101 0-.101.101c-.102.203-.203.405-.203.608 0 .202.102.405.102.607l.102.101s.101 0 .101-.101c.102-.102.102-.405.102-.607a.951.951 0 0 0-.103-.709zm5.976 10.026c-1.619-1.113-1.619-3.646-1.619-3.747 0-.101.1-.202.202-.304-.202-.304-.507-.506-.71-.709l-1.013.607c-.101.203-.101.203-.203.203h-.708l1.823 2.836c.203.203 1.113.812 2.228 1.114zm.304-.709c0-.811-.507-1.721-1.114-2.531.101.709.304 1.822 1.114 2.531zm-1.013 5.471l-.506-1.115c-1.823 1.014-2.533 2.938-2.734 4.457.911-1.622 2.126-2.735 3.24-3.342zm2.837 4.96h-.203c-.102 0-.305-.1-.305-.201l-1.012-2.025c-.102.102-.304.201-.405.305-.405.404-.608 1.012-.608 1.619 0 1.215 1.014 2.227 2.33 2.227s2.228-1.113 2.228-2.328c0-.607-.304-1.215-.709-1.621-.405-.404-1.013-.607-1.62-.607-.203 0-.405 0-.506.102l1.013 2.025c-.001.202-.001.405-.203.504z"/><path fill="none" d="M35.285 21.822a9.368 9.368 0 0 0-2.633.709l.709 1.418c.304-.102.606-.102.81-.102.81 0 1.62.305 2.127.811.607.609.911 1.316.911 2.127a3.116 3.116 0 0 1-2.937 3.139h-.102c-1.62 0-3.038-1.314-3.038-2.936 0-.811.304-1.621.81-2.127.203-.203.405-.305.608-.508l-.709-1.416c-1.014.605-1.924 1.416-2.634 2.633-.101.404-.203.91-.203 1.418 0 1.418.608 2.633 1.621 3.545a5.505 5.505 0 0 0 3.646 1.418c1.418 0 2.633-.609 3.545-1.621a5.501 5.501 0 0 0 1.418-3.646c.102-2.33-1.62-4.354-3.949-4.862zm-1.519-.506c.912-.203 1.723-.305 2.33-.305a6.145 6.145 0 0 0-2.431-.506c-.608 0-1.216.102-1.823.303l.506 1.014c.506-.203 1.013-.404 1.418-.506zm-8-6.076a.217.217 0 0 1-.203-.202s-.404-1.216-2.229-1.317c-1.519-.101-4.254 1.013-5.469 2.228-.304.305-.506.608-.506.912.304.305.608.607.709.912.203.304.304.607.203.911-.101.405-.506.507-.608.507-.304.101-1.013.202-1.722.404l1.317.709c.607-.404 1.114-.709 1.519-1.013l.608-.304c.506-.405 1.417-.811 2.329-.911.506-.102.911 0 1.418.101a4.262 4.262 0 0 1 1.418.912c1.013 1.013 1.519 2.632 1.722 3.443.101.102.101.305.202.406l.203.102c.304-.609 1.114-1.723 2.531-3.04l-2.228-4.152-1.214-.608z"/><path fill="#85868D" d="M29.815 20.202c.103-.101.203-.303.103-.404l-2.432-4.558c0-.102-.101-.102-.202-.202l-1.114-.507c-.203-.405-.912-1.519-2.735-1.722-1.721-.102-4.658 1.013-6.076 2.431-.506.506-.709.911-.709 1.316-.405.202-1.418.709-2.836.202-.708-.202-1.316-.607-1.823-.911-.811-.507-1.621-1.013-2.938-1.114-2.025 0-4.253-.404-4.253-.404h-.101l-.203.202c-.102.101-.203.202-.203.304-.608 0-1.317.102-1.519.405-.101.202-.101.405.202.708.101.102.506.305 1.013.709C2.066 17.772.952 20 .041 22.33c-.102.201 0 .404.203.506.101 0 .101.102.202.102s.202-.102.304-.203c2.431-3.242 4.962-4.153 5.874-4.355 1.216.811 2.431 1.62 3.14 2.228 1.519 1.215 3.646 1.924 4.659 2.229-.304.404-.608.506-.811.506l-3.95-2.229v.912c-.81-.406-1.722-.607-2.734-.607-.405 0-.811.1-1.216.201-.101 0-.101-.102-.203-.102H4.497c-.102 0-.304.102-.304.203l-.405.709c-1.519 1.113-2.633 2.938-2.532 4.963 0 1.52.709 3.039 1.823 4.152 1.114 1.014 2.532 1.621 4.052 1.621h.101c1.519 0 3.039-.709 4.152-1.824.912-.91 1.52-2.125 1.621-3.441l2.127.404h.304c1.722.305 3.24.404 4.558.404.809 0 1.62-.1 2.329-.201 1.316-.203 1.823-.607 1.823-.709.608-.609 2.532-2.635 2.734-3.141.102-.201 0-.607-.102-1.012h.102c.102 0 .202-.104.202-.203-.102.1.709-1.418 2.733-3.241zM9.054 15.645c1.114 0 1.823.404 2.532.911.506.304 1.215.709 2.025 1.013 1.621.507 2.836 0 3.342-.304.304.304.405.507.506.608a.311.311 0 0 1 .102.202l-2.633.708c-1.114-.404-4.051-1.619-4.962-1.619-.304-.102-1.216-.608-2.229-1.014a9.287 9.287 0 0 0-1.418-.709c.811.102 1.823.204 2.735.204zm-4.456 2.633c-1.114.506-2.126 1.316-3.14 2.228.811-1.519 1.722-2.734 3.14-3.443.304.202.709.506 1.114.709-.304.102-.608.202-1.114.506zm5.672 1.621c-.709-.608-1.722-1.317-2.836-2.025-.304-.102-.608-.305-.811-.406-.405-.202-.709-.506-1.114-.709-.202-.102-.303-.202-.506-.304-.101-.101-.203-.101-.304-.202-.405-.305-.709-.507-1.013-.607.304 0 .709 0 1.013.101.101.102.304.102.405.202.101.102.304.102.404.203.203.102.507.203.811.405s.709.304 1.114.507c.102 0 .203.102.203.102 1.114.607 1.823 1.012 2.228 1.012l4.861 1.621.811.404 1.012.507c-.709.506-1.417 1.113-1.721 1.621h-.102c-.81-.509-2.936-1.218-4.455-2.432zm-3.343 2.33h.101c1.013 0 2.025.303 2.938.91.202.508.506 1.014 1.012 1.621l-4.253-2.531h.202zm3.848 8.609c-.911 1.012-2.228 1.518-3.646 1.619a5.493 5.493 0 0 1-3.646-1.418c-1.012-.912-1.519-2.229-1.62-3.646 0-1.518.608-2.836 1.519-3.746l.405.91c0 .102.101.102.203.203l.405.203c-.607.709-1.013 1.518-1.013 2.531 0 .912.405 1.822 1.114 2.43a3.532 3.532 0 0 0 2.431 1.014h.101c.912 0 1.823-.404 2.431-1.113.608-.607.912-1.418 1.013-2.229l1.62.305c-.101 1.011-.506 2.126-1.317 2.937zm-4.152-3.344c0 .203.203.305.405.305h.102l.81-.203c-.101.404-.405.81-.912.81-.506 0-.912-.406-.912-.912s.405-.912.912-.912c.304 0 .507.102.709.406l-.81.201a.225.225 0 0 0-.304.305zm-1.316-.101c0 .912.81 1.621 1.621 1.621.912 0 1.62-.811 1.62-1.723l.304-.102h.101l.709.102c0 .709-.304 1.318-.81 1.822-.507.508-1.215.811-1.924.811s-1.418-.303-1.924-.811a2.76 2.76 0 0 1-.811-1.924c0-.709.304-1.418.811-1.922.102-.104.102-.104.203-.203l1.114.607c-.61.405-1.014 1.013-1.014 1.722zm7.596-.204l-.709-.1-1.621-.305h-.101l-.811-.102-.405-.102-.202-.1-3.14-1.619-.81-.404-.608-.305-.405-.811.101-.303.405-.709h.709l.202.1 5.773 3.342.607.305.203.102.811.506.101.102c.202.203.405.404.709.506l-.809-.103zm4.456.711c-.405 0-.811-.102-1.215-.102l-2.735-1.621c-.303-.303-.607-.506-.81-.709-1.215-1.115-1.722-2.127-2.026-2.836 0-.102 0-.102-.101-.203l2.937 1.621h.102l.101.102 1.114.404h.203l.911-.203 1.418.609c0 .608-.102 1.925.101 2.938zm8.709-3.343c-.202.305-1.418 1.723-2.634 2.836-.101.102-1.417.912-5.367.607-.304-1.215 0-3.139 0-3.139 0-.203-.101-.305-.203-.404l-1.722-.811h-.203l-1.013.201-.405-.201c.203-.203.506-.508.709-.912.506-.404 1.418-1.115 1.621-1.316.912-.709 1.114-.912 1.215-1.115a6.927 6.927 0 0 0 1.012-.811c.102-.101.203-.202.405-.202.71-.405 1.52-.81 2.229-.911.811-.102 1.52.202 2.126.811.608 1.113 1.216 2.228 1.621 3.24.102.305.102.406.102.508s.101.201.203.201c.203.709.304 1.215.304 1.418zm.507-1.619l-.203-.102c-.101-.102-.101-.305-.202-.406-.203-.811-.709-2.329-1.722-3.443-.405-.405-.811-.709-1.418-.911-.405-.102-.911-.202-1.418-.102-1.012.102-1.822.507-2.33.911l-.608.305c-.404.202-.911.607-1.519 1.012l-1.215-.81a11.07 11.07 0 0 0 1.722-.405c.102 0 .507-.102.608-.506.101-.203 0-.507-.203-.912-.101-.304-.405-.607-.709-.912 0-.202.203-.506.506-.911 1.215-1.215 3.95-2.329 5.469-2.228 1.824.202 2.127 1.316 2.229 1.316 0 .102.101.203.203.203l1.215.506 2.228 4.152c-1.519 1.418-2.329 2.635-2.633 3.243z"/><path fill="#868686" d="M37.209 21.822c.305 0 .507.102.507.102.202 0 .304-.102.405-.203.102-.203 0-.303-.102-.404s-3.139-2.33-6.583-1.013l-1.316-3.038c.506.304 1.418.811 2.431 1.114h.102c.101 0 .202-.102.304-.102.101-.202.202-.304.304-.506l.102-.102v-.203c.606-2.228-2.633-5.165-2.836-5.367-.102-.102-.305-.102-.405 0l-1.115.709h-1.113c-.101-.203-.304-.304-.506-.506.101-.608.304-2.228-.102-3.241.102-.203.202-.506.202-.811 0-.81-.405-1.417-1.013-1.417a.76.76 0 0 0-.708.506c-.103.304-.203.608-.203.911 0 .304.101.709.203.912 0 .304.303.507.606.507h.203c.102.709.102 1.62 0 2.126-.608-.405-1.417-.81-2.532-1.114-.203 0-.405.102-.405.304s.102.405.305.405c1.924.506 2.937 1.316 3.443 1.924l.304.507v.101l3.139 6.482c-1.519.81-2.531 2.126-2.937 4.052-.405 1.619-.304 2.936-.304 3.037 0 .203.102.305.304.305.203 0 .304-.102.304-.203s.102-.203.102-.305c.102 1.418.708 2.836 1.823 3.85 1.113 1.012 2.532 1.621 4.051 1.621h.102c1.519 0 3.038-.711 4.152-1.824 1.113-1.113 1.621-2.633 1.621-4.152.098-2.128-1.117-3.95-2.839-4.964zM26.474 8.758l-.102.101s-.101 0-.101-.101c-.102-.102-.203-.304-.203-.607 0-.203 0-.405.102-.608.102 0 .202-.101.202-.101s.305.203.305.709c-.102.202-.102.404-.203.607zm6.178 8c-.811-.709-1.014-1.924-1.114-2.531.608.811 1.114 1.721 1.114 2.531zm-3.647-3.24c.103 0 .103 0 .203-.102l1.013-.607.71.709c-.103.102-.202.202-.202.304 0 .101 0 2.532 1.619 3.747-1.114-.304-2.024-1.013-2.228-1.114l-1.823-2.937h.708zm4.66 6.988c.91 0 1.823.203 2.431.506-.71 0-1.521.102-2.33.305-.506.102-1.013.303-1.519.506l-.507-1.014c.709-.202 1.317-.303 1.925-.303zm-5.267 5.064c.201-1.52.911-3.443 2.734-4.457l.506 1.115c-1.113.608-2.328 1.721-3.24 3.342zm9.622 4.862c-.911 1.012-2.229 1.52-3.544 1.619a5.503 5.503 0 0 1-3.647-1.416c-1.013-.912-1.519-2.229-1.62-3.545 0-.508 0-.912.202-1.418.811-1.215 1.723-2.129 2.634-2.633l.709 1.418c-.202.1-.405.303-.607.506-.607.607-.912 1.316-.811 2.127 0 1.619 1.418 2.938 3.038 2.938h.103c1.721 0 3.038-1.418 2.937-3.141 0-.811-.304-1.52-.912-2.127-.606-.607-1.316-.912-2.127-.811-.303 0-.607.102-.81.102l-.709-1.418a9.366 9.366 0 0 1 2.634-.709c2.329.506 4.05 2.533 4.05 4.963-.102 1.215-.609 2.531-1.52 3.545zm-3.445-3.748l-1.012-2.025c.202 0 .404-.102.507-.102.607 0 1.113.203 1.62.607.405.406.709 1.014.709 1.621 0 1.316-1.014 2.328-2.229 2.328s-2.229-1.012-2.329-2.227c0-.607.202-1.215.607-1.619a1.38 1.38 0 0 1 .405-.305l1.013 2.025c.101.102.203.201.304.201h.202c.306-.098.306-.301.203-.504zm-12.861-6.887c-.203-.102-.405.102-.507.202-.102.202.102.405.203.506 1.52.404 2.329 1.316 2.329 1.316.101.102.203.102.304.102.102 0 .202 0 .202-.102.103-.102.103-.404 0-.506 0-.1-.911-1.012-2.531-1.518zm-.709 1.012c-.203-.1-.404.102-.507.203-.101.203.103.406.203.506 1.519.406 2.431 1.318 2.431 1.318.102.102.202.102.303.102.103 0 .203 0 .203-.102.102-.102.102-.406 0-.506.101 0-.911-1.014-2.633-1.521zm-.507 1.115c-.203-.102-.405.102-.505.203-.102.203.1.404.203.506 1.417.406 2.228 1.215 2.228 1.316.102.102.202.102.304.102s.203 0 .203-.102c.101-.102.202-.406 0-.506.099-.101-.812-1.113-2.433-1.519zm1.317 2.533h-.305c-.202-.711-.81-1.115-1.518-1.115-.811 0-1.521.709-1.521 1.52s.71 1.52 1.521 1.52c.203 0 .505-.102.708-.203.202.404.607.709 1.114.709.709 0 1.215-.607 1.215-1.215s-.505-1.216-1.214-1.216zm-1.822 1.113a.693.693 0 0 1-.71-.709c0-.404.305-.709.71-.709.405 0 .708.305.708.709a.691.691 0 0 1-.708.709zm1.822.506c-.203 0-.405-.201-.405-.404s.202-.404.405-.404c.202 0 .404.201.404.404.001.303-.201.404-.404.404z"/></svg>