<svg xmlns="http://www.w3.org/2000/svg" width="40" height="40" viewBox="0 0 40 40"><g fill="#5E5F5E"><path d="M33.378 24.371S21.75 12.791 21.174 12.164c-.473-.512-.926-.557-1.077-.557l-.055.001-.052-.001c-.15 0-.604.045-1.078.557-.58.628-12.204 12.207-12.204 12.207v10.416s-.195 2.848 3.521 2.947c1.239.029 2.343.041 3.265.041 1.844 0 2.959-.041 2.959-.041v-9.457l3.588-.049 3.59.049v9.457s1.116.041 2.958.041c.921 0 2.025-.012 3.263-.041 3.718-.1 3.524-2.947 3.524-2.947l.002-10.416zM29.81 35.994a120.375 120.375 0 0 1-4.443.035v-7.754c0-.953-.764-1.725-1.712-1.738l-3.589-.049h-.049l-3.588.049a1.735 1.735 0 0 0-1.713 1.738v7.754a120.636 120.636 0 0 1-4.443-.035c-1.49-.037-1.821-.619-1.832-1.107.007-.049.001-.031.001-.1V25.09c2.31-2.299 10.318-10.284 11.597-11.595 1.278 1.313 9.29 9.296 11.597 11.595v9.697c0 .068-.003.051.003.1-.006.492-.338 1.07-1.829 1.107z"/><path d="M38.625 18.633c-.03-.037-.061-.07-.085-.104-.158-.205-2.604-2.717-5.493-5.669V7.153a2.873 2.873 0 0 0-2.869-2.872 2.872 2.872 0 0 0-2.862 2.731 2878.319 2878.319 0 0 0-3.121-3.177l-.037-.035c-.061-.054-1.509-1.345-3.747-1.548a2.085 2.085 0 0 0-.339-.028h-.16c-.112 0-.223.009-.34.028-2.237.203-3.687 1.494-3.747 1.548l-.035.036C12.508 7.169 1.786 18.087 1.442 18.527l-.08.1c-.4.49-1.462 1.791-.185 3.59.733 1.029 1.587 1.25 2.175 1.25 1.133 0 1.986-.797 2.093-.9.132-.133 13.267-13.365 13.882-13.96a.965.965 0 0 1 .363-.23l.304-.038.28.032a.921.921 0 0 1 .379.236c.601.583 13.14 13.211 13.854 13.932.191.229.923 1.014 2.016 1.014.827 0 1.589-.441 2.258-1.305 1.366-1.76.22-3.154-.156-3.615zm-1.214 2.551c-.186.236-.545.633-.889.633-.303 0-.605-.293-.682-.389l-.072-.082c-.219-.223-2.406-2.424-4.984-5.019-1.126-1.136-2.33-2.347-3.479-3.501-2.754-2.771-5.175-5.207-5.441-5.465a2.651 2.651 0 0 0-1.379-.722l-.022-.04h-.535c-.04 0-.084 0-.128.002l-.298.005-.017.033a2.641 2.641 0 0 0-1.372.722c-.627.608-13.363 13.44-13.892 13.971-.082.08-.491.396-.871.396-.097 0-.393 0-.759-.516-.487-.688-.286-1 .114-1.49.038-.045.073-.09.092-.113.408-.477 8.705-8.942 14.201-14.532.127-.109 1.194-.964 2.752-1.099l.078-.01.073-.007.086.003.082-.002c.024 0 .047.002.078.006l.078.01c1.558.135 2.627.993 2.753 1.099a3791.98 3791.98 0 0 1 4.328 4.408l1.737 1.77V7.153a1.134 1.134 0 0 1 2.269 0v6.367c0 .015-.005.028-.005.044l1.354 1.387c2.478 2.533 4.323 4.432 4.507 4.645l.114.141c.411.499.62.814.129 1.447z"/></g></svg>