<svg xmlns="http://www.w3.org/2000/svg"
width="40" height="40" viewBox="0 0 100 100">
<path fill="#5e5e5e" d="M78.159 2.501H22.451c-6.013 0-10.901 4.793-10.901 10.682v74.175c0 5.892 4.888 10.683 10.901 10.683h55.708c6.013 0 10.9-4.791 10.9-10.683V13.184c.001-5.89-4.887-10.683-10.9-10.683zm7.27 84.857c0 3.926-3.261 7.121-7.27 7.121H22.451c-4.007 0-7.269-3.195-7.269-7.121V13.184c0-3.926 3.262-7.121 7.269-7.121h55.708c4.009 0 7.27 3.194 7.27 7.121v74.174zM71.3 13.982H29.309c-2.672 0-4.844 2.129-4.844 4.748v11.578c0 2.617 2.172 4.747 4.844 4.747H71.3c2.668 0 4.844-2.13 4.844-4.747V18.73c0-2.619-2.176-4.748-4.844-4.748zm1.211 16.326c0 .654-.546 1.187-1.211 1.187H29.309c-.657 0-1.212-.545-1.212-1.187V18.73c0-.645.555-1.187 1.212-1.187H71.3c.665 0 1.211.53 1.211 1.187v11.578zM35.453 74.014h-6.145c-2.672 0-4.844 2.129-4.844 4.747v6.021c0 2.617 2.172 4.747 4.844 4.747h6.145c2.67 0 4.845-2.13 4.845-4.747v-6.021c0-2.618-2.174-4.747-4.845-4.747zm1.213 10.768c0 .645-.556 1.187-1.213 1.187h-6.145c-.657 0-1.212-.542-1.212-1.187v-6.021c0-.644.555-1.187 1.212-1.187h6.145c.657 0 1.213.543 1.213 1.187v6.021zm16.711-10.768h-6.145c-2.67 0-4.843 2.129-4.843 4.747v6.021c0 2.617 2.173 4.747 4.843 4.747h6.145c2.669 0 4.844-2.13 4.844-4.747v-6.021c0-2.618-2.175-4.747-4.844-4.747zm1.212 10.768c0 .645-.553 1.187-1.212 1.187h-6.145c-.657 0-1.213-.542-1.213-1.187v-6.021c0-.644.556-1.187 1.213-1.187h6.145c.659 0 1.212.543 1.212 1.187v6.021zM71.3 74.014h-6.143c-2.668 0-4.844 2.129-4.844 4.747v6.021c0 2.617 2.176 4.747 4.844 4.747H71.3c2.668 0 4.844-2.13 4.844-4.747v-6.021c0-2.618-2.176-4.747-4.844-4.747zm1.211 10.768c0 .656-.546 1.187-1.211 1.187h-6.143a1.2 1.2 0 0 1-1.213-1.187v-6.021a1.2 1.2 0 0 1 1.213-1.187H71.3c.665 0 1.211.53 1.211 1.187v6.021zM35.453 56.454h-6.145c-2.672 0-4.844 2.13-4.844 4.747v6.021c0 2.616 2.172 4.748 4.844 4.748h6.145c2.67 0 4.845-2.132 4.845-4.748v-6.021c0-2.617-2.174-4.747-4.845-4.747zm1.213 10.769c0 .641-.556 1.187-1.213 1.187h-6.145c-.657 0-1.212-.546-1.212-1.187v-6.021c0-.644.555-1.188 1.212-1.188h6.145c.657 0 1.213.544 1.213 1.188v6.021zm16.711-10.769h-6.145c-2.67 0-4.843 2.13-4.843 4.747v6.021c0 2.616 2.173 4.748 4.843 4.748h6.145c2.669 0 4.844-2.132 4.844-4.748v-6.021c0-2.617-2.175-4.747-4.844-4.747zm1.212 10.769c0 .641-.553 1.187-1.212 1.187h-6.145c-.657 0-1.213-.546-1.213-1.187v-6.021c0-.644.556-1.188 1.213-1.188h6.145c.659 0 1.212.544 1.212 1.188v6.021zM71.3 56.454h-6.143c-2.668 0-4.844 2.13-4.844 4.747v6.021c0 2.616 2.176 4.748 4.844 4.748H71.3c2.668 0 4.844-2.132 4.844-4.748v-6.021c0-2.617-2.176-4.747-4.844-4.747zm1.211 10.769c0 .652-.546 1.187-1.211 1.187h-6.143c-.67 0-1.213-.534-1.213-1.187v-6.021a1.2 1.2 0 0 1 1.213-1.188H71.3c.665 0 1.211.531 1.211 1.188v6.021zM35.453 39.152h-6.145c-2.672 0-4.844 2.129-4.844 4.748v6.021c0 2.617 2.172 4.747 4.844 4.747h6.145c2.67 0 4.845-2.13 4.845-4.747V43.9c0-2.619-2.174-4.748-4.845-4.748zm1.213 10.77c0 .641-.556 1.186-1.213 1.186h-6.145c-.657 0-1.212-.545-1.212-1.186V43.9c0-.643.555-1.187 1.212-1.187h6.145c.657 0 1.213.544 1.213 1.187v6.022zm16.711-10.77h-6.145c-2.67 0-4.843 2.129-4.843 4.748v6.021c0 2.617 2.173 4.747 4.843 4.747h6.145c2.669 0 4.844-2.13 4.844-4.747V43.9c0-2.619-2.175-4.748-4.844-4.748zm1.212 10.77c0 .641-.553 1.186-1.212 1.186h-6.145c-.657 0-1.213-.545-1.213-1.186V43.9c0-.643.556-1.187 1.213-1.187h6.145c.659 0 1.212.544 1.212 1.187v6.022zM71.3 39.152h-6.143c-2.668 0-4.844 2.129-4.844 4.748v6.021c0 2.617 2.176 4.747 4.844 4.747H71.3c2.668 0 4.844-2.13 4.844-4.747V43.9c0-2.619-2.176-4.748-4.844-4.748zm1.211 10.77c0 .652-.546 1.186-1.211 1.186h-6.143c-.67 0-1.213-.533-1.213-1.186V43.9a1.2 1.2 0 0 1 1.213-1.187H71.3c.665 0 1.211.531 1.211 1.187v6.022z"/></svg>
