<svg xmlns="http://www.w3.org/2000/svg" width="40" height="40" viewBox="0 0 100 100"><path fill="#85868D" d="M96.334 37.261H69.245V28.67h12.39a1.81 1.81 0 0 0 1.802-1.818V6.664c0-1.006-.808-1.82-1.802-1.82H17.766c-.996 0-1.804.814-1.804 1.82v20.188a1.81 1.81 0 0 0 1.804 1.818h12.391v8.591H3.066c-.997 0-1.805.813-1.805 1.819v57.743c0 1.009.808 1.822 1.805 1.822h93.268c.996 0 1.804-.813 1.804-1.822V39.081c0-1.007-.808-1.82-1.804-1.82zM19.569 25.029V8.485h60.262v16.544H19.569zm46.068 3.641v8.591H33.763V28.67h31.874zm22.555 66.337H51.504V88.17h36.688v6.837zm-5.949-13.481v3.004h-24.79v-3.004h24.79zm-18.317-3.639V53.933h11.851v23.954H63.926zm30.606 17.12h-2.73V86.35a1.813 1.813 0 0 0-1.804-1.819h-4.146v-4.823c0-1.006-.808-1.82-1.805-1.82h-4.665V52.112a1.81 1.81 0 0 0-1.802-1.821H62.119c-.996 0-1.805.816-1.805 1.821v25.774h-4.663c-.996 0-1.804.814-1.804 1.82v4.823H49.7a1.81 1.81 0 0 0-1.803 1.819v8.657H4.87V40.902h89.662v54.105zM14.724 71.786h28.605c.998 0 1.805-.815 1.805-1.82V51.091c0-1.006-.808-1.82-1.805-1.82H14.724c-.995 0-1.803.814-1.803 1.82v18.875c0 1.005.808 1.82 1.803 1.82zm1.804-18.876h24.999v15.235H16.528V52.91z"/></svg>