<svg xmlns="http://www.w3.org/2000/svg" width="40" height="40" viewBox="0 0 40 40"><title>icones</title><path fill="#85868D" d="M4.255 38.17l.043-.6c0-.076.009-.148.013-.223.002-.177.021-.354.051-.527l1.298-6.734c1.092-5.665 2.18-11.331 3.262-16.999.156-.823.552-1.25 1.364-1.474 3.627-.994 7.449-2.219 10.837-4.416 2.813-1.836 4.796-3.824 6.216-6.257l.548-.94 4.688 14.634c.145.448.283.901.423 1.354.312 1.006.631 2.047 1.002 3.039.339.914.19 1.684-.44 2.288a131 131 0 0 0-1.643 1.609c-1.379 1.366-2.803 2.774-4.361 3.995-5.775 4.531-12.639 7.951-22.25 11.09a1.6 1.6 0 0 1-.297.055c-.045 0-.098.012-.162.02l-.592.086zM27.613 2.328c-1.443 2.168-3.364 3.99-5.969 5.685-3.494 2.271-7.402 3.522-11.104 4.538-.451.124-.583.265-.668.719A4672.738 4672.738 0 0 1 6.61 30.271l-1.295 6.722c9.336-3.071 16.023-6.418 21.645-10.828 1.508-1.189 2.907-2.576 4.271-3.922a140 140 0 0 1 1.654-1.621c.35-.334.408-.695.204-1.25-.381-1.021-.704-2.075-1.021-3.096a59.247 59.247 0 0 0-.42-1.344L27.613 2.328zM9.109 24.464l.537-2.812c.47-2.476.914-4.813 1.399-7.156.113-.545.81-.859 1.103-.969.817-.305 1.641-.593 2.463-.881 1.283-.449 2.609-.915 3.884-1.433 2.588-1.058 5.073-2.66 7.388-4.774.133-.124.276-.244.441-.386l.824-.713.73 2.266c.59 1.826 1.15 3.55 1.676 5.32.153.519-.309 1.135-.574 1.389-3.444 3.289-7.576 5.792-12.627 7.65-1.406.528-2.819 1-4.314 1.503-.695.232-1.405.473-2.137.723l-.793.273zm2.879-9.736a417.458 417.458 0 0 0-1.391 7.104l-.224 1.176 1.354-.455c1.487-.501 2.895-.975 4.287-1.488 4.924-1.818 8.945-4.254 12.293-7.449.131-.127.234-.281.301-.451-.52-1.746-1.07-3.451-1.656-5.258l-.271-.875-.133.125c-2.398 2.191-4.982 3.859-7.676 4.957-1.297.529-2.635.996-3.93 1.455-.817.284-1.635.571-2.445.873a1.472 1.472 0 0 0-.505.287l-.004-.001zm-.009.012zm16.64-1.596zm-13.23 23.651c6.449-2.075 12.952-3.979 18.828-7.732l1.528 3.967c-6.641 2.36-13.501 3.027-20.356 3.765z"/><path fill="#85868D" d="M33.294 23.332c.435 1.013.851 1.877 1.158 2.774.087.253-.048.726-.252.905-.56.491-1.163.929-1.806 1.307-5.135 3.071-10.74 5.014-16.442 6.75 6.319-3.035 12.308-6.549 17.342-11.736zM34.8 35.043l.911 2.656-21.264.449c6.823-.695 13.647-1.279 20.353-3.105zM9.747 23.736c.612-3.209 1.165-6.182 1.778-9.141.054-.253.49-.499.793-.611 2.115-.794 4.272-1.469 6.361-2.318 2.807-1.143 5.295-2.821 7.534-4.866.199-.183.408-.354.7-.609.755 2.347 1.503 4.603 2.179 6.873.072.239-.21.677-.444.899-3.6 3.431-7.825 5.84-12.463 7.552-2.056.762-4.145 1.432-6.438 2.221z"/></svg>