<svg xmlns="http://www.w3.org/2000/svg" style="width:42px;height:auto" viewBox="0 0 56 56"><defs><clipPath id="a"><path data-name="Retângulo 25" transform="translate(655 329)" fill="none" stroke="#707070" d="M0 0h56v56H0z"/></clipPath></defs><g data-name="Grupo 390" transform="translate(-655 -329)" clip-path="url(#a)"><g data-name="Grupo 389"><path data-name="Caminho 80" d="M670.677 355.532l23.908-.116a39.889 39.889 0 0 0 9.937-1.585c-.047-.049-.094-.1-.143-.142a5.937 5.937 0 0 1-.677-.712 10.094 10.094 0 0 1-1.683-2.96 35.53 35.53 0 0 0-.379-.973 4.029 4.029 0 0 1-2.184.415c-1.432.008-7.7.038-14.554.038-9.254 0-19.585-.054-20.567-.283a4.967 4.967 0 0 1-1.318-.476c-.22.533-.39.971-.5 1.279a7.636 7.636 0 0 1-.328.726l-.1.212a9.487 9.487 0 0 1-1.253 2.023c-.164.2-.309.357-.448.5 1.935.612 6.834 2.054 10.289 2.054z" fill="none"/><path data-name="Caminho 81" d="M693.973 358.43a.255.255 0 0 0 .058.277 2.33 2.33 0 0 0 1.526.368c2.126 0 7.649-2.3 7.7-2.32a1.968 1.968 0 0 0 .911-.992 1.075 1.075 0 0 0 0-.612 41.789 41.789 0 0 1-8.713 1.448z" fill="none"/><path data-name="Caminho 82" d="M678.602 366.161h7.479a1.278 1.278 0 0 0 .936-.261.4.4 0 0 0 .075-.28l-.011-.111V363.8h-9.049v1.71c.006.24.086.651.57.651z" fill="none"/><path data-name="Caminho 83" d="M661.404 349.741l-.187-1.028a1.953 1.953 0 0 0-2.011-1.679 4.992 4.992 0 0 0-2.825 1.241l-.061.054s-.211.184-.19.371c.022.205.317.564 1.081.948a6.194 6.194 0 0 0 3.985.529c.076-.148.147-.291.208-.436z" fill="none"/><path data-name="Caminho 84" d="M690.481 361.066l1.432-.748a39.377 39.377 0 0 0 1.359-.74 1.476 1.476 0 0 1-.271-1.756l.064-.1.911-1.124-22.9.111.983 1.22a1.475 1.475 0 0 1-.317 1.8l-.044.032a10.291 10.291 0 0 0 1.585 1.352c.718.36 7.025.5 15.684.339a3.37 3.37 0 0 0 1.514-.386z" fill="none"/><path data-name="Caminho 85" d="M664.588 348.064c1.2.28 21.542.285 34.924.22a2.9 2.9 0 0 0 1.675-.329 42.391 42.391 0 0 0-2.157-4.306l-.065-.112c-1.31-2.225-3.561-3.354-6.69-3.354h-21.593c-2.223 0-3.7.973-5.1 3.354l-.065.111a42.407 42.407 0 0 0-2.028 4.012 3.535 3.535 0 0 0 1.099.404z" fill="none"/><path data-name="Caminho 86" d="M661.819 356.878c.026.011 5.55 2.307 7.676 2.307a2.34 2.34 0 0 0 1.527-.368.256.256 0 0 0 .058-.277l-1.514-1.867a42.689 42.689 0 0 1-8.543-1.766 1.266 1.266 0 0 0-.142.966 1.97 1.97 0 0 0 .938 1.005z" fill="none"/><path data-name="Caminho 87" d="M708.731 348.718l-.062-.056a4.942 4.942 0 0 0-2.774-1.235c-1.078-.1-2.8.774-2.99 1.7.07.179.13.336.176.464a9.779 9.779 0 0 0 .56 1.236 7.7 7.7 0 0 0 4.2-.788c.769-.388 1.062-.746 1.081-.953.009-.184-.191-.366-.191-.368z" fill="none"/><path data-name="Caminho 88" d="M694.818 365.992a3.275 3.275 0 0 0 2.547 1.334c3.767.133 5.442-.069 5.96-.248a19.7 19.7 0 0 0-.783-3.244c-.544-.308-3.524.403-7.724 2.158z" fill="none"/><path data-name="Caminho 89" d="M661.724 363.206a19.77 19.77 0 0 0-.783 3.244c.519.179 2.192.383 5.961.247a3.275 3.275 0 0 0 2.547-1.334c-4.348-1.816-7.19-2.466-7.725-2.157z" fill="none"/><path data-name="Caminho 90" d="M705.331 355.715a2.235 2.235 0 0 1-.084.414 3.088 3.088 0 0 1-1.539 1.71c-.26.111-5.807 2.416-8.15 2.416a5.3 5.3 0 0 1-1.022-.091 19.275 19.275 0 0 1-2.118 1.21l-1.432.748a4.458 4.458 0 0 1-2 .513l-.777.013v2.811a1.615 1.615 0 0 1-.307 1.169 2.17 2.17 0 0 1-1.823.709H678.6a1.728 1.728 0 0 1-1.7-1.833v-2.88c-2.43-.091-3.845-.262-4.222-.513a12.142 12.142 0 0 1-2.1-1.854 5.164 5.164 0 0 1-1.078.1c-2.343 0-7.889-2.305-8.125-2.4a3.1 3.1 0 0 1-1.566-1.722 2.384 2.384 0 0 1 .118-1.675c-.134-.044-.253-.082-.352-.116a3.427 3.427 0 0 0-.37 1.316c-.295 3.693-.9 12.739-.168 16.965a1.032 1.032 0 0 0 .619.777 5.305 5.305 0 0 0 4.4.088.78.78 0 0 0 .407-.7v-3.787h35.616v3.789a.784.784 0 0 0 .407.7 5.3 5.3 0 0 0 4.4-.088 1.028 1.028 0 0 0 .619-.779c.732-4.229.125-13.272-.17-16.965a.276.276 0 0 0-.004-.045zm-34.693 9.911a4.4 4.4 0 0 1-3.7 2.251c-.881.031-1.65.046-2.318.046-4.037 0-4.458-.5-4.655-.738a.813.813 0 0 1-.186-.661 19.743 19.743 0 0 1 .924-3.838c.245-.5.933-1.916 9.541 1.74a.824.824 0 0 1 .46.509.873.873 0 0 1-.066.691zm33.66 2.188c-.2.235-.619.738-4.654.738-.669 0-1.435-.015-2.318-.046a4.387 4.387 0 0 1-3.686-2.228l-.012-.023a.872.872 0 0 1-.067-.692.824.824 0 0 1 .46-.508c8.607-3.659 9.3-2.245 9.522-1.782a19.293 19.293 0 0 1 .941 3.879.808.808 0 0 1-.186.662z" fill="none"/><path data-name="Caminho 91" d="M670.245 364.425c-8.608-3.656-9.3-2.243-9.541-1.74a19.739 19.739 0 0 0-.923 3.838.818.818 0 0 0 .186.661c.2.235.619.738 4.654.738.668 0 1.436-.014 2.318-.045a4.4 4.4 0 0 0 3.7-2.251.873.873 0 0 0 .067-.692.821.821 0 0 0-.461-.509zm-3.342 2.272c-3.77.135-5.442-.069-5.962-.247a19.786 19.786 0 0 1 .783-3.244c.537-.309 3.377.34 7.726 2.157a3.279 3.279 0 0 1-2.548 1.335z" fill="#5c5c5c"/><path data-name="Caminho 92" d="M703.544 363.273c-.226-.463-.917-1.877-9.523 1.782a.823.823 0 0 0-.46.508.873.873 0 0 0 .067.692l.012.023a4.383 4.383 0 0 0 3.686 2.228c.883.031 1.649.046 2.318.046 4.034 0 4.458-.5 4.655-.738a.814.814 0 0 0 .187-.661 19.289 19.289 0 0 0-.942-3.88zm-6.178 4.053a3.272 3.272 0 0 1-2.547-1.334c4.2-1.755 7.18-2.468 7.724-2.157a19.735 19.735 0 0 1 .783 3.243c-.519.18-2.194.381-5.961.248z" fill="#5c5c5c"/><path data-name="Caminho 93" d="M709.437 347.799a6 6 0 0 0-3.422-1.546l-.069-.007a4.7 4.7 0 0 0-3.592 1.535A43.844 43.844 0 0 0 700 343.04l-.07-.122c-1.547-2.628-4.141-3.954-7.763-3.918h-21.485c-2.6 0-4.472 1.209-6.066 3.915l-.072.124a43.865 43.865 0 0 0-2.221 4.433l-.172.4a3.047 3.047 0 0 0-3.049-2.014l-.066.006a6.006 6.006 0 0 0-3.424 1.546 1.7 1.7 0 0 0-.607 1.4c.066.722.643 1.362 1.716 1.9a7.2 7.2 0 0 0 3.257.771c.19 0 .37-.008.535-.02a6.83 6.83 0 0 1-.53.74 5.008 5.008 0 0 1-.548.58 4.2 4.2 0 0 0-1.355 2.883c-.3 3.74-.911 12.909-.156 17.273a2.2 2.2 0 0 0 1.307 1.662 7.594 7.594 0 0 0 2.893.625 5.245 5.245 0 0 0 2.432-.572 1.976 1.976 0 0 0 1.037-1.754v-2.604h33.354v2.608a1.976 1.976 0 0 0 1.037 1.754 5.256 5.256 0 0 0 2.433.572 7.6 7.6 0 0 0 2.893-.625 2.2 2.2 0 0 0 1.31-1.659c.756-4.367.143-13.534-.156-17.273a4.211 4.211 0 0 0-1.355-2.883 5.137 5.137 0 0 1-.547-.58c-.042-.051-.083-.1-.123-.156a8.9 8.9 0 0 0 3.89-.947c1.072-.541 1.649-1.183 1.714-1.9a1.691 1.691 0 0 0-.606-1.406zm-43.922-4.155l.066-.111c1.4-2.383 2.881-3.354 5.1-3.354h21.592c3.129 0 5.378 1.129 6.69 3.354l.065.112a42.4 42.4 0 0 1 2.157 4.306 2.9 2.9 0 0 1-1.675.329c-13.381.065-33.726.06-34.924-.22a3.5 3.5 0 0 1-1.1-.4 42.083 42.083 0 0 1 2.029-4.016zm-2.676 4.068zm-5.625 1.935c-.764-.386-1.059-.743-1.081-.948-.02-.187.19-.372.19-.372l.061-.054a4.987 4.987 0 0 1 2.825-1.241 1.953 1.953 0 0 1 2.011 1.68l.187 1.028c-.061.143-.133.288-.207.438a6.208 6.208 0 0 1-3.986-.527zm3.623 3.328a9.629 9.629 0 0 0 1.253-2.023l.1-.212a7.884 7.884 0 0 0 .328-.727c.115-.308.284-.746.5-1.279a5.061 5.061 0 0 0 1.318.476c.981.23 11.313.283 20.567.283 6.857 0 13.122-.029 14.554-.038a4.011 4.011 0 0 0 2.184-.415c.164.406.292.736.379.973a10.161 10.161 0 0 0 1.683 2.96 6.1 6.1 0 0 0 .677.712c.05.044.1.093.144.142a39.911 39.911 0 0 1-9.937 1.585l-23.908.116c-3.46 0-8.359-1.442-10.294-2.057.145-.137.288-.296.452-.492zm43.335 2.784a1.967 1.967 0 0 1-.911.992c-.055.023-5.578 2.32-7.7 2.32a2.326 2.326 0 0 1-1.525-.368.256.256 0 0 1-.058-.277l1.487-1.831a41.794 41.794 0 0 0 8.713-1.448 1.118 1.118 0 0 1-.005.616zm-26.14 8.034h9.045v1.709l.011.111a.4.4 0 0 1-.075.28 1.272 1.272 0 0 1-.936.261h-7.479c-.479 0-.56-.41-.565-.656v-1.7zm-4.75-2.681a10.3 10.3 0 0 1-1.585-1.352l.044-.033a1.475 1.475 0 0 0 .317-1.8l-.983-1.22 22.9-.111-.911 1.124-.064.1a1.477 1.477 0 0 0 .271 1.756c-.306.176-.738.415-1.359.74l-1.432.748a3.371 3.371 0 0 1-1.516.389c-8.656.162-14.965.023-15.681-.337zm-12.257-6.21a42.69 42.69 0 0 0 8.543 1.766l1.515 1.867a.255.255 0 0 1-.058.277 2.336 2.336 0 0 1-1.527.368c-2.126 0-7.649-2.3-7.676-2.307a1.97 1.97 0 0 1-.939-1.005 1.274 1.274 0 0 1 .147-.962zm44.482 17.823a1.035 1.035 0 0 1-.619.779 5.3 5.3 0 0 1-4.4.088.783.783 0 0 1-.407-.7v-3.789h-35.616v3.787a.781.781 0 0 1-.407.7 5.307 5.307 0 0 1-4.4-.088 1.033 1.033 0 0 1-.619-.777c-.731-4.226-.125-13.272.169-16.965a3.464 3.464 0 0 1 .37-1.316l.353.116a2.384 2.384 0 0 0-.119 1.675 3.1 3.1 0 0 0 1.566 1.722c.236.1 5.781 2.4 8.125 2.4a5.165 5.165 0 0 0 1.078-.1 12.124 12.124 0 0 0 2.1 1.854c.379.249 1.792.42 4.222.513v2.88a1.728 1.728 0 0 0 1.7 1.832h7.479a2.171 2.171 0 0 0 1.823-.709 1.608 1.608 0 0 0 .307-1.17v-2.813l.777-.013a4.48 4.48 0 0 0 2-.513l1.432-.748a19.1 19.1 0 0 0 2.118-1.211 5.288 5.288 0 0 0 1.022.091c2.343 0 7.889-2.305 8.15-2.416a3.088 3.088 0 0 0 1.539-1.711 2.241 2.241 0 0 0 .084-.414c0 .016 0 .033.006.051.29 3.696.899 12.741.168 16.969zm2.329-22.692a7.7 7.7 0 0 1-4.2.788 9.786 9.786 0 0 1-.56-1.236l-.176-.464c.192-.927 1.911-1.8 2.99-1.7a4.933 4.933 0 0 1 2.773 1.235l.062.055s.208.184.19.368c-.016.212-.311.57-1.079.958z" fill="#5c5c5c"/></g></g></svg>