<svg xmlns="http://www.w3.org/2000/svg" width="40" height="40" viewBox="0 0 40 40"><g fill="#5E5E5E"><path d="M20.05 3.545c3.103 0 6.103.901 8.804 2.601h.099l.602-1.001-.102-.099c-2.801-1.801-6.102-2.701-9.402-2.701-4.7 0-9.102 1.8-12.503 5.201-5.601 5.602-6.801 14.005-3 20.907l-3.601-.9-.3 1.2 5.701 1.398 1.501-5.701-1.301-.299-.9 3.601c-3.502-6.402-2.402-14.104 2.8-19.305 3.1-3.201 7.201-4.902 11.602-4.902zm19.305 7.602l-5.701-1.5-1.5 5.702 1.199.3.9-3.601c3.602 6.401 2.501 14.402-2.7 19.505-3.101 3.103-7.2 4.801-11.604 4.801-3.101 0-6.101-.901-8.802-2.502l-.1-.1-.7 1.103.1.1c2.8 1.801 6.102 2.7 9.402 2.7 4.703 0 9.102-1.8 12.503-5.201 5.602-5.602 6.802-14.205 2.901-21.006l3.601.9.501-1.201z"/><path d="M20.05 23.551c-.899 0-1.6-.601-1.7-1.401l-1.1-9.002c0-.2 0-.399.1-.6.5-1.101 1.701-1.101 2.401-1.2h.5c.8 0 1.9.1 2.4 1 .2.2.2.5.2.7-.301 1.901-.7 6.001-1.1 9.102-.099.8-.8 1.401-1.701 1.401m-.1-11.003h-.199c-.701 0-1.201.1-1.401.5l1.1 9.003c0 .399.5.399.5.399.1 0 .5 0 .5-.399.301-3.101.801-7.102 1.101-9.003-.2-.3-.699-.4-1.4-.4 0-.1-.101-.1-.201-.1m.1 16.104c-1.299 0-2.3-1-2.3-2.3 0-1.303 1-2.302 2.3-2.302 1.301 0 2.3.999 2.3 2.302 0 1.201-.999 2.3-2.3 2.3m0-3.501c-.6 0-1.1.5-1.1 1.101 0 .6.5 1.101 1.1 1.101a1.11 1.11 0 0 0 1.101-1.101 1.111 1.111 0 0 0-1.101-1.101"/></g></svg>