<svg id="icon-agenda" xmlns="http://www.w3.org/2000/svg" width="15" height="15.441" viewBox="0 0 15 15.441">
  <g id="Grupo_289" data-name="Grupo 289">
    <path id="Caminho_106" data-name="Caminho 106" d="M17.875,6.5a.478.478,0,0,1,.469.488v.325h2.031a.638.638,0,0,1,.625.65V21.291a.638.638,0,0,1-.625.65H6.625A.638.638,0,0,1,6,21.291V7.963a.638.638,0,0,1,.625-.65H9.281V6.988a.469.469,0,1,1,.938,0v.325h7.188V6.988A.478.478,0,0,1,17.875,6.5Zm2.188,4.389H6.938V20.966H20.063ZM17.406,16.74a.813.813,0,1,1-.781.813A.8.8,0,0,1,17.406,16.74Zm-3.75,0a.813.813,0,1,1-.781.813A.8.8,0,0,1,13.656,16.74Zm3.75-3.576a.813.813,0,1,1-.781.813A.8.8,0,0,1,17.406,13.164Zm-3.75,0a.813.813,0,1,1-.781.813A.8.8,0,0,1,13.656,13.164Zm-4.063,0a.813.813,0,1,1-.781.813A.8.8,0,0,1,9.594,13.164ZM9.281,8.288H6.938V9.913H20.063V8.288H18.344a.469.469,0,1,1-.937,0H10.219a.469.469,0,1,1-.937,0Z" transform="translate(-6 -6.5)" fill="#cd2b14"/>
  </g>
</svg>
