<?xml version="1.0" encoding="UTF-8" standalone="no"?><!DOCTYPE svg PUBLIC "-//W3C//DTD SVG 1.1//EN" "http://www.w3.org/Graphics/SVG/1.1/DTD/svg11.dtd"><svg width="100%" height="100%" viewBox="0 0 223 223" version="1.1" xmlns="http://www.w3.org/2000/svg" xmlns:xlink="http://www.w3.org/1999/xlink" xml:space="preserve" xmlns:serif="http://www.serif.com/" style="fill-rule:evenodd;clip-rule:evenodd;stroke-linejoin:round;stroke-miterlimit:2;"><path d="M71.683,148.244l-4.505,-2.811l-1.122,0l-3.373,-1.683l-32.072,-18.578l-1.128,-0.561l-3.939,0l-2.25,3.939l-0.561,1.694l2.25,4.506l3.378,1.683l4.5,2.256l17.445,8.994l1.127,0.567l2.25,0l4.506,0.567l0.561,-0l9.006,1.694l3.938,0.556l4.5,0.566c-1.177,-1.114 -2.502,-2.06 -3.938,-2.811l-0.573,-0.578Zm-33.2,1.689l4.5,-1.127c-1.122,-1.128 -2.25,-2.245 -3.939,-2.245c-0.009,0 -0.018,0 -0.027,0c-2.765,0 -5.039,2.275 -5.039,5.039c-0,0.006 -0,0.011 -0,0.017c-0,2.822 2.25,5.066 5.066,5.066c2.25,0 4.506,-1.683 5.067,-4.505l-5.067,1.694l-0.561,0c-1.127,0 -1.689,-0.566 -2.25,-1.694c0,-0.561 1.128,-1.678 2.25,-2.245Z" style="fill:none;fill-rule:nonzero;"/><path d="M27.794,141.494c-2.811,2.812 -4.505,6.75 -4.505,10.689c-0,3.939 1.689,7.878 4.505,10.689c2.812,2.822 6.75,4.506 10.689,4.506c3.939,-0 7.873,-1.684 10.689,-4.506c2.811,-2.811 3.939,-6.183 4.5,-10.122l-3.939,-0.567l-0.555,0l-1.689,0.567c-0,5.067 -3.933,9.572 -9,9.572c-0.039,0.001 -0.078,0.001 -0.118,0.001c-4.876,-0 -8.888,-4.013 -8.888,-8.889c-0,-0.039 -0,-0.078 0,-0.117c0,-3.939 2.25,-7.311 5.628,-8.445l-6.189,-3.372c-0.566,-0.572 -0.566,-0.572 -1.128,-0.006Z" style="fill:none;fill-rule:nonzero;"/><circle cx="117.25" cy="141.489" r="1.689" style="fill:none;"/><path d="M88.561,135.3l-5.067,1.128l-1.122,-0l-6.189,-2.245c-0.566,0 -0.566,-0.566 -0.566,-0.566l-0.561,-0l-16.323,-9.006c0,0.567 0,0.567 0.567,1.128c1.128,3.939 4.5,9.005 11.256,15.755c1.127,1.128 2.811,2.812 4.5,3.939l15.188,9.006c2.256,0.561 4.506,0.561 6.756,0.561c-1.122,-5.633 -0.561,-12.944 0,-16.322l-8.439,-3.378Zm-6.189,-12.372c2.25,-2.822 5.622,-5.634 9.561,-9.006l-5.622,-2.811l-4.505,-2.25l-27.006,-9.561c-2.25,-0 -6.189,-2.256 -12.378,-5.633c-0.561,-0 -1.128,-0.567 -1.128,-0.567c-2.25,-1.122 -3.938,-1.689 -6.188,-2.811c-1.689,-0.567 -3.378,-1.128 -4.506,-2.25c-1.122,-0.567 -1.683,-0.567 -2.244,-1.122c-0.567,-0 -1.689,-0.567 -2.25,-1.128c-1.689,0.567 -3.939,0.567 -5.628,0.567c1.128,1.122 3.378,2.244 5.628,3.372c0.561,0.566 1.127,0.566 1.688,1.128c1.128,0.561 1.689,1.122 2.812,1.683c1.688,1.128 3.938,2.822 6.188,3.944c1.128,1.123 2.817,2.25 4.506,3.373c5.622,3.938 11.817,7.877 15.756,11.255c8.438,6.183 20.25,10.122 25.316,11.817Zm-26.444,-27.567c5.061,0.561 21.378,6.75 27.566,8.995l14.067,-3.373c0,0 0,-0.561 -0.567,-1.122c-0.561,-0.561 -1.688,-2.25 -2.811,-3.372c-2.811,1.689 -9.566,4.5 -18.566,1.689c-4.5,-1.689 -7.873,-3.939 -11.25,-5.634c-4.506,-2.811 -7.878,-5.061 -14.067,-5.061c-5.067,0 -10.128,-0.561 -14.628,-1.122c2.25,1.122 5.067,2.245 7.878,3.939c5.061,1.678 10.689,4.494 12.378,5.061Zm-0.561,33.189c-4.506,-3.372 -10.134,-5.056 -16.323,-5.056l-2.25,0l23.634,14.062c-2.25,-3.378 -3.939,-6.762 -5.061,-9.006Zm-2.25,36.578c-3.378,3.939 -8.439,5.622 -13.506,6.194l-0.567,0c-5.066,0 -9.566,-1.694 -13.505,-5.633c-3.939,-3.372 -5.628,-8.445 -6.189,-13.511c-0,-5.067 1.689,-10.122 5.628,-14.061l-2.25,-1.128c-0.561,-0 -0.561,-0.567 -1.128,-1.117l-2.25,-4.505c-5.622,5.055 -9,12.933 -8.439,20.811c0,7.878 3.378,14.639 9.006,20.255c5.554,5.022 12.768,7.827 20.255,7.878c7.878,0 14.628,-3.372 20.256,-8.994c4.485,-4.556 7.268,-10.52 7.878,-16.884l-9.006,-1.694c-1.122,5.072 -2.811,9 -6.183,12.389Zm-44.45,-51.206c5.627,-5.628 11.25,-9.566 17.444,-12.378c2.25,-1.122 4.5,-2.244 6.189,-2.811c-2.25,-1.694 -4.5,-2.816 -6.189,-3.939c-7.883,3.373 -13.505,10.689 -17.444,19.128Zm137.844,-72.583c0,-0 -0.561,-0 -0.561,0.561c-0.567,1.128 -1.128,2.25 -1.128,3.378c0,1.122 0.567,2.25 0.567,3.372l0.567,0.561c-0,0 0.561,0 0.561,-0.561c0.566,-0.567 0.566,-2.25 0.566,-3.372c0.33,-1.337 0.125,-2.751 -0.572,-3.939Zm33.2,55.7c-8.994,-6.183 -8.994,-20.256 -8.994,-20.817c-0,-0.561 0.555,-1.122 1.122,-1.689c-1.122,-1.689 -2.817,-2.811 -3.945,-3.939l-5.627,3.373c-0.561,1.127 -0.561,1.127 -1.128,1.127l-3.933,0l10.127,15.756c1.128,1.128 6.184,4.511 12.378,6.189Zm1.689,-3.939c0,-4.506 -2.817,-9.561 -6.189,-14.061c0.561,3.939 1.689,10.122 6.189,14.061Zm-5.628,30.394l-2.811,-6.194c-10.128,5.633 -14.072,16.322 -15.189,24.761c5.061,-9.011 11.811,-15.194 18,-18.567Zm15.761,27.556l-1.127,-0c-0.567,-0 -1.695,-0.556 -1.695,-1.117l-5.622,-11.25c-0.567,0.567 -1.689,1.117 -2.25,1.695c-2.25,2.244 -3.378,5.622 -3.378,8.994c0,6.75 5.633,12.372 12.945,12.372c7.311,0 12.377,-6.183 12.377,-12.933c0,-3.372 -1.689,-6.75 -3.939,-9.005c-2.25,-2.245 -5.627,-3.373 -9,-3.373c-1.127,0 -2.25,0 -2.811,0.567l5.628,11.25c-0.005,1.122 -0.005,2.25 -1.128,2.8Z" style="fill:none;fill-rule:nonzero;"/><path d="M196.028,121.233c-5.042,0.593 -9.97,1.92 -14.628,3.939l3.939,7.878c1.689,-0.567 3.367,-0.567 4.5,-0.567c4.5,0 9,1.695 11.817,4.506c3.372,3.383 5.061,7.311 5.061,11.817c0.083,9.18 -7.151,16.911 -16.317,17.438l-0.567,0c-9,0 -16.877,-7.3 -16.877,-16.311c-0,-4.505 1.688,-9.005 4.5,-11.816c1.127,-1.128 2.25,-1.695 3.377,-2.823l-3.939,-7.866c-5.633,3.361 -10.688,7.866 -14.633,14.628c-0.561,2.244 -1.128,5.055 -1.128,7.877c0,7.878 3.378,14.628 9.006,19.695c5.558,5.016 12.769,7.82 20.255,7.878c7.878,-0 14.628,-3.384 19.695,-9.006c5.018,-5.557 7.822,-12.769 7.878,-20.256c0.566,-12.944 -9,-24.188 -21.939,-27.011Zm-8.439,-2.811c5.067,-1.128 9.572,-1.694 12.944,-1.694c-4.263,-1.846 -8.859,-2.803 -13.505,-2.811c-3.378,-0 -6.756,0.566 -10.128,1.683l2.811,5.633c2.811,-1.127 5.628,-2.244 7.878,-2.811Zm-44.445,-33.755c-0.601,-0.038 -1.087,-0.521 -1.127,-1.123c-0.041,-0.601 -2.245,-6.755 -12.384,-7.316c-8.439,-0.561 -23.633,5.628 -30.383,12.378c-1.689,1.694 -2.811,3.377 -2.811,5.066c1.689,1.695 3.378,3.372 3.939,5.067c1.128,1.689 1.689,3.372 1.128,5.061c-0.562,2.25 -2.812,2.817 -3.378,2.817c-1.689,0.561 -5.628,1.122 -9.567,2.244l7.317,3.939c3.372,-2.244 6.189,-3.939 8.439,-5.628l3.377,-1.689c2.812,-2.25 7.873,-4.505 12.939,-5.061c2.811,-0.566 5.061,0 7.878,0.561c2.937,1.148 5.616,2.87 7.878,5.067c5.628,5.628 8.439,14.622 9.567,19.128c0.561,0.566 0.561,1.694 1.122,2.255l1.128,0.567c1.688,-3.383 6.188,-9.572 14.061,-16.889l-12.378,-23.067l-6.745,-3.377Z" style="fill:none;fill-rule:nonzero;"/><path d="M165.639,112.233c0.572,-0.561 1.128,-1.683 0.572,-2.244l-13.511,-25.322c0,-0.567 -0.561,-0.567 -1.122,-1.123l-6.189,-2.816c-1.128,-2.25 -5.067,-8.439 -15.195,-9.567c-9.561,-0.567 -25.877,5.628 -33.755,13.506c-2.811,2.811 -3.939,5.061 -3.939,7.311c-2.25,1.122 -7.878,3.939 -15.756,1.122c-3.933,-1.122 -7.311,-3.372 -10.127,-5.061c-4.506,-2.817 -9.006,-5.628 -16.323,-6.189c-11.25,-0 -23.627,-2.244 -23.627,-2.244l-0.561,-0l-1.128,1.122c-0.567,0.561 -1.128,1.122 -1.128,1.689c-3.378,-0 -7.317,0.566 -8.439,2.25c-0.561,1.122 -0.561,2.25 1.122,3.933c0.561,0.567 2.811,1.694 5.628,3.939c-10.683,6.194 -16.872,18.572 -21.933,31.517c-0.567,1.116 -0,2.244 1.128,2.811c0.561,-0 0.561,0.566 1.122,0.566c0.561,0 1.122,-0.566 1.689,-1.127c13.505,-18.012 27.566,-23.073 32.633,-24.195c6.756,4.506 13.506,9 17.444,12.378c8.439,6.75 20.256,10.689 25.884,12.383c-1.689,2.245 -3.378,2.811 -4.506,2.811l-21.944,-12.383l-0,5.067c-4.5,-2.256 -9.567,-3.373 -15.189,-3.373c-2.25,0 -4.506,0.556 -6.756,1.117c-0.561,0 -0.561,-0.567 -1.127,-0.567l-5.623,0c-0.566,0 -1.689,0.567 -1.689,1.128l-2.25,3.939c-8.438,6.183 -14.627,16.322 -14.066,27.572c-0,8.445 3.939,16.884 10.128,23.067c6.188,5.633 14.066,9.006 22.511,9.006l0.561,-0c8.439,-0 16.883,-3.939 23.066,-10.134c5.067,-5.055 8.445,-11.805 9.006,-19.116l11.817,2.244l1.689,-0c9.566,1.694 18,2.244 25.322,2.244c4.494,0 9,-0.555 12.939,-1.116c7.311,-1.128 10.127,-3.372 10.127,-3.939c3.378,-3.383 14.067,-14.639 15.189,-17.45c0.567,-1.117 0,-3.372 -0.566,-5.622l0.566,-0c0.567,-0 1.123,-0.578 1.123,-1.128c-0.567,0.555 3.938,-7.878 15.183,-18.006Zm-115.339,-25.316c6.189,-0 10.128,2.244 14.067,5.061c2.811,1.689 6.75,3.939 11.25,5.628c9.005,2.816 15.755,-0 18.566,-1.689c1.689,1.689 2.25,2.816 2.811,3.377c0.323,0.29 0.526,0.691 0.567,1.123l-14.628,3.933c-6.189,-2.244 -22.505,-8.994 -27.566,-8.994c-1.689,-0.567 -6.756,-3.378 -12.384,-5.634c-2.509,-1.535 -5.144,-2.853 -7.877,-3.939c4.505,0.567 10.127,1.134 15.194,1.134Zm-24.756,14.627c-6.188,2.812 -11.811,7.312 -17.444,12.378c4.506,-8.439 9.567,-15.189 17.444,-19.128c1.689,1.123 3.939,2.812 6.189,3.939c-1.689,0.567 -3.377,1.123 -6.189,2.811Zm31.512,9.006c-3.939,-3.378 -9.567,-7.317 -15.756,-11.25c-1.689,-0.567 -3.378,-1.694 -4.506,-2.256c-2.25,-1.122 -3.938,-2.811 -6.188,-3.938c-1.123,-0.567 -1.684,-1.123 -2.812,-1.689c-0.561,-0.561 -1.127,-0.561 -1.688,-1.123c-2.25,-1.694 -3.939,-2.816 -5.628,-3.372c1.689,0 3.939,0 5.628,0.561c0.561,0.567 1.688,0.567 2.25,1.123c0.561,0.566 1.688,0.566 2.244,1.127c1.128,0.567 2.817,1.128 4.506,2.25c1.688,1.123 3.938,1.689 6.188,2.817c0.567,-0 1.128,0.567 1.128,0.567c6.189,3.372 10.128,5.622 12.378,5.622l27.006,9.005l4.505,2.245l5.622,2.817c-3.939,2.811 -7.872,6.183 -9.561,9.005l-0.566,0c-4.5,-2.828 -16.312,-6.767 -24.75,-13.511Zm-19.695,12.944l1.683,0c5.628,0 11.25,1.684 16.323,5.056c1.122,2.822 2.811,5.633 5.622,9.006l-23.628,-14.062Zm22.5,47.828c-5.061,5.622 -12.378,8.434 -20.255,8.995c-7.488,-0.052 -14.701,-2.857 -20.256,-7.878c-5.622,-5.067 -8.439,-12.383 -9,-20.256c-0,-8.433 3.378,-15.755 8.439,-20.811l2.25,5.056c-0,0.566 0.561,0.566 1.128,1.128l2.25,1.127c-3.373,3.939 -5.628,8.434 -5.628,14.061c-0,5.067 2.25,10.123 6.189,13.5c3.606,3.548 8.447,5.568 13.505,5.634l0.561,-0c5.067,-0 10.128,-2.245 13.506,-6.184c3.378,-3.372 5.067,-7.877 5.628,-12.383l9,1.695c-0.561,5.616 -2.811,11.811 -7.317,16.316Zm-23.067,-18.578c0,1.128 1.128,1.695 2.25,1.695l0.567,-0l4.5,-1.128c-0.561,2.245 -2.25,4.5 -5.067,4.5c-2.811,0 -5.066,-2.255 -5.066,-5.067c-0,-2.811 2.25,-5.066 5.066,-5.066c1.689,-0 2.817,0.566 3.939,2.255l-4.5,1.117c-0.181,-0.096 -0.382,-0.147 -0.587,-0.147c-0.686,0 -1.25,0.565 -1.25,1.25c-0,0.207 0.051,0.41 0.148,0.591Zm-7.311,-0.561c0,5.067 4.5,9.006 9.006,9.006c5.067,-0 9,-4.506 9,-9.572l1.689,-0.567l0.561,-0l3.939,0.567c-0,3.939 -1.689,7.322 -4.5,10.122c-2.817,2.822 -6.75,4.505 -10.689,4.505c-3.939,0 -7.878,-1.683 -10.689,-4.505c-2.843,-2.835 -4.461,-6.675 -4.506,-10.689c0,-3.939 1.689,-7.878 4.506,-10.678c0.567,-0.578 0.567,-0.578 1.128,-1.128l6.189,3.373c-3.389,2.25 -5.634,5.627 -5.634,9.566Zm42.2,-1.133l-3.939,-0.556l-9.005,-1.694l-0.561,-0l-4.506,-0.567l-2.25,-0.566l-1.122,-0.556l-17.444,-8.994l-4.5,-2.245l-3.378,-1.694l-2.25,-4.506l0.561,-1.683l2.25,-3.939l3.939,-0l1.122,0.556l32.072,18.566l4.5,2.261l4.506,2.811l0.561,0.567c1.122,1.128 2.25,2.245 3.939,2.811l-4.495,-0.572Zm24.756,3.95c-2.25,-0 -4.506,-0.567 -6.75,-0.567l-15.195,-9.005c-1.683,-1.684 -3.372,-2.811 -4.5,-3.939c-6.75,-6.195 -9.566,-11.817 -11.255,-15.756c-0,-0.566 -0,-0.566 -0.561,-1.127l16.316,9.005l0.567,0l0.561,0.567l6.189,2.244l1.128,0l5.061,-1.128l7.878,3.384c-0,3.378 -0.567,10.694 0.561,16.322Zm48.383,-18.572c-1.122,1.694 -7.878,9.572 -14.633,15.755c-0.561,0.567 -7.872,5.067 -29.817,3.373c-1.689,-6.75 0,-17.439 0,-17.439c0,-1.128 -0.561,-1.695 -1.128,-2.245l-9.566,-4.505l-1.128,-0l-5.628,1.116l-2.25,-1.116c1.128,-1.128 2.811,-2.823 3.939,-5.067c2.811,-2.244 7.878,-6.194 9.006,-7.311c5.066,-3.939 6.189,-5.067 6.75,-6.195c2.011,-1.322 3.893,-2.831 5.622,-4.505c0.567,-0.561 1.128,-1.122 2.25,-1.122c3.944,-2.25 8.444,-4.5 12.383,-5.061c4.506,-0.567 8.445,1.122 11.811,4.505c3.378,6.183 6.756,12.378 9.006,18c0.567,1.695 0.567,2.256 0.567,2.822c-0,0.567 0.561,1.117 1.127,1.117c1.128,3.939 1.689,6.75 1.689,7.878Zm2.817,-8.995l-1.128,-0.566c-0.561,-0.567 -0.561,-1.695 -1.122,-2.256c-1.128,-4.505 -3.939,-12.939 -9.567,-19.128c-2.25,-2.25 -4.505,-3.939 -7.878,-5.061c-2.25,-0.566 -5.061,-1.122 -7.877,-0.566c-5.623,0.566 -10.123,2.816 -12.945,5.061l-3.378,1.694c-2.244,1.122 -5.061,3.372 -8.438,5.622l-6.75,-4.5c3.243,-0.493 6.442,-1.246 9.566,-2.25c0.567,0 2.817,-0.566 3.378,-2.811c0.561,-1.128 -0,-2.816 -1.128,-5.066c-0.561,-1.689 -2.25,-3.373 -3.939,-5.067c0,-1.122 1.128,-2.811 2.811,-5.061c6.75,-6.75 21.945,-12.939 30.384,-12.378c10.133,1.122 11.816,7.311 12.383,7.311c0,0.567 0.561,1.128 1.128,1.128l6.75,2.811l12.378,23.067c-8.439,7.877 -12.939,14.639 -14.628,18.016Z" style="fill:#85868d;fill-rule:nonzero;"/><path d="M206.717,121.233c1.694,0 2.816,0.567 2.816,0.567c1.123,0 1.689,-0.567 2.25,-1.128c0.567,-1.128 0,-1.683 -0.566,-2.244c-0.567,-0.561 -17.439,-12.945 -36.573,-5.628l-7.311,-16.878c2.811,1.689 7.878,4.506 13.506,6.189l0.567,0c0.561,0 1.122,-0.567 1.688,-0.567c0.562,-1.122 1.123,-1.688 1.689,-2.811l0.567,-0.566l0,-1.128c3.367,-12.378 -14.628,-28.695 -15.756,-29.817c-0.566,-0.566 -1.694,-0.566 -2.25,0l-6.194,3.939l-6.183,0c-0.561,-1.128 -1.689,-1.689 -2.811,-2.811c0.561,-3.378 1.688,-12.378 -0.567,-18.006c0.567,-1.127 1.122,-2.811 1.122,-4.505c0,-4.5 -2.25,-7.872 -5.628,-7.872c-1.766,0.019 -3.343,1.145 -3.933,2.811c-0.572,1.689 -1.128,3.378 -1.128,5.061c0,1.689 0.561,3.939 1.128,5.067c0,1.688 1.683,2.816 3.367,2.816l1.127,0c0.567,3.939 0.567,9 0,11.811c-3.377,-2.25 -7.872,-4.5 -14.066,-6.189c-1.128,0 -2.25,0.567 -2.25,1.689c-0,1.123 0.566,2.25 1.694,2.25c10.689,2.811 16.317,7.311 19.128,10.689l1.689,2.817l-0,0.561l17.439,36.011c-8.439,4.5 -14.061,11.811 -16.317,22.511c-2.25,8.995 -1.689,16.311 -1.689,16.872c0,1.128 0.567,1.695 1.689,1.695c1.128,-0 1.689,-0.567 1.689,-1.128c0,-0.561 0.567,-1.128 0.567,-1.694c0.566,7.877 3.933,15.755 10.127,21.389c6.184,5.622 14.067,9.005 22.506,9.005l0.567,0c8.439,0 16.877,-3.95 23.066,-10.133c6.184,-6.184 9.006,-14.628 9.006,-23.067c0.544,-11.822 -6.206,-21.944 -15.772,-27.578Zm-59.639,-72.577l-0.567,0.561c0,-0 -0.561,-0 -0.561,-0.561c-0.567,-0.567 -1.128,-1.689 -1.128,-3.373c0,-1.127 0,-2.25 0.567,-3.377c0.567,-0 1.122,-0.562 1.122,-0.562c0,0 1.695,1.128 1.695,3.939c-0.567,1.123 -0.567,2.245 -1.128,3.373Zm34.322,44.444c-4.506,-3.939 -5.633,-10.689 -6.189,-14.061c3.378,4.505 6.189,9.561 6.189,14.061Zm-20.261,-18c0.572,0 0.572,0 1.128,-0.567l5.627,-3.372l3.945,3.939c-0.572,0.567 -1.122,1.122 -1.122,1.689c-0,0.561 -0,14.067 8.994,20.817c-6.189,-1.689 -11.244,-5.628 -12.378,-6.189l-10.127,-16.317l3.933,0Zm25.889,38.822c5.055,0 10.128,1.128 13.505,2.811c-3.944,0 -8.45,0.567 -12.944,1.695c-2.811,0.566 -5.628,1.683 -8.439,2.811l-2.817,-5.633c3.939,-1.123 7.317,-1.684 10.695,-1.684Zm-29.261,28.134c1.116,-8.445 5.061,-19.128 15.189,-24.762l2.811,6.195c-6.184,3.378 -12.934,9.561 -18,18.567Zm53.455,27.011c-5.061,5.622 -12.383,8.444 -19.689,8.994c-7.487,-0.052 -14.7,-2.853 -20.261,-7.867c-5.628,-5.066 -8.439,-12.383 -9,-19.694c0,-2.822 0,-5.067 1.122,-7.878c4.506,-6.75 9.573,-11.828 14.634,-14.628l3.939,7.878c-1.123,0.556 -2.25,1.684 -3.373,2.811c-3.372,3.373 -5.066,7.311 -4.505,11.817c-0,8.994 7.878,16.322 16.878,16.322l0.572,0c9.561,0 16.878,-7.878 16.317,-17.45c-0,-4.505 -1.689,-8.444 -5.067,-11.816c-3.367,-3.373 -7.311,-5.067 -11.817,-4.506c-1.683,-0 -3.372,0.567 -4.5,0.567l-3.939,-7.878c4.66,-2.02 9.59,-3.347 14.634,-3.939c12.939,2.811 22.5,14.072 22.5,27.572c-0.567,6.75 -3.384,14.061 -8.445,19.695Zm-19.139,-20.823l-5.622,-11.25c1.122,0 2.245,-0.566 2.817,-0.566c3.372,-0 6.183,1.128 9,3.372c2.25,2.256 3.939,5.633 3.939,9.006c-0,7.311 -5.634,12.933 -12.384,12.933c-6.75,-0 -12.383,-5.622 -12.939,-12.372c0,-3.373 1.123,-6.75 3.373,-8.995c0.639,-0.699 1.401,-1.273 2.25,-1.694l5.627,11.25c0.562,0.566 1.128,1.116 1.689,1.116l1.123,0c1.7,-0.544 1.7,-1.672 1.127,-2.8Zm-71.45,-38.261c-1.127,-0.566 -2.25,0.567 -2.816,1.123c-0.567,1.122 0.566,2.25 1.127,2.811c8.445,2.244 12.939,7.311 12.939,7.311c0.561,0.566 1.128,0.566 1.689,0.566c0.567,0 1.122,0 1.122,-0.566c0.573,-0.567 0.573,-2.245 0,-2.811c0,-0.556 -5.061,-5.623 -14.061,-8.434Zm-3.939,5.623c-1.127,-0.556 -2.244,0.566 -2.816,1.127c-0.561,1.128 0.572,2.256 1.128,2.811c8.438,2.256 13.505,7.323 13.505,7.323c0.567,0.566 1.122,0.566 1.683,0.566c0.573,0 1.128,0 1.128,-0.566c0.567,-0.567 0.567,-2.256 0,-2.811c0.561,-0 -5.061,-5.634 -14.628,-8.45Zm-2.816,6.194c-1.128,-0.567 -2.25,0.567 -2.806,1.128c-0.566,1.128 0.556,2.244 1.128,2.811c7.872,2.255 12.378,6.75 12.378,7.311c0.566,0.567 1.122,0.567 1.689,0.567c0.566,-0 1.127,-0 1.127,-0.567c0.562,-0.567 1.123,-2.256 0,-2.811c0.55,-0.561 -4.511,-6.183 -13.516,-8.439Zm7.316,14.072l-1.694,0c-1.122,-3.95 -4.5,-6.194 -8.433,-6.194c-4.506,-0 -8.45,3.939 -8.45,8.444c-0,4.506 3.944,8.445 8.45,8.445c1.127,-0 2.805,-0.567 3.933,-1.128c1.122,2.244 3.372,3.939 6.189,3.939c3.939,-0 6.75,-3.372 6.75,-6.75c-0,-3.378 -2.806,-6.756 -6.745,-6.756Zm-10.122,6.184c-0.032,0 -0.063,0.001 -0.095,0.001c-2.112,-0 -3.85,-1.738 -3.85,-3.85c-0,-0.03 0,-0.06 0.001,-0.09c-0,-2.245 1.694,-3.939 3.944,-3.939c2.25,-0 3.934,1.694 3.934,3.939c0,0.033 0.001,0.067 0.001,0.101c-0,2.106 -1.733,3.839 -3.839,3.839c-0.032,-0 -0.064,-0.001 -0.096,-0.001Zm10.122,2.811c-1.127,-0 -2.25,-1.117 -2.25,-2.245c0,-1.128 1.123,-2.244 2.25,-2.244c1.123,-0 2.245,1.116 2.245,2.244c0.005,1.684 -1.117,2.245 -2.245,2.245Z" style="fill:#868686;fill-rule:nonzero;"/></svg>