<svg xmlns="http://www.w3.org/2000/svg" width="25" height="25" viewBox="0 0 396.85 396.851"><path fill="#424142" d="M265.156 249.246c19.145-26.407 28.506-59.396 23.206-93.447-11.133-71.428-82.179-120.714-158.54-109.581C53.462 57.337.592 124.69 11.725 196.132c11.132 71.421 82.179 120.713 158.539 109.574 31.081-4.531 58.169-18.279 78.799-37.901l117.879 81.484c2.875 1.983 6.187 2.698 9.32 2.248 3.121-.463 6.282-2.118 8.203-4.796 4.101-5.205 2.943-12.645-2.589-16.637l-116.72-80.858zm-228.4-56.766C27.64 133.97 70.89 78.825 133.487 69.695c62.38-9.088 120.686 31.04 129.843 89.755 9.143 58.708-34.147 113.655-96.732 122.771-62.584 9.13-120.726-31.231-129.842-89.741z"/></svg>