<svg xmlns="http://www.w3.org/2000/svg" width="76.402" height="44.253" viewBox="0 0 76.402 44.253">
    <g id="Grupo_472" data-name="Grupo 472" transform="translate(24482.045 17457)">
    <g id="Grupo_472-2" data-name="Grupo 472" transform="translate(-24456.486 -17457)">
        <path id="Caminho_134" data-name="Caminho 134" d="M57.586,62.822H36.076a.983.983,0,0,1-.984-.984V58.95a.988.988,0,0,1,.29-.7c.053-.052,5.078-5.1,5.078-9.676,0-3.222,6.035-5.73,15.243-9.188,3.959-1.485,9.94-3.732,10.346-4.832.169-1.9-5.072-5.816-8.671-7.857a.983.983,0,0,1,.382-1.833l9-.949a.989.989,0,0,1,.712.2c.991.778,9.7,7.75,9.918,12.716a3.681,3.681,0,0,1-1.17,2.934,1,1,0,0,1-.628.265c-.079,0-7.815.417-12.824,6.093-3.29,3.724-4.72,8.893-4.258,15.365a1,1,0,0,1,.061.346A.983.983,0,0,1,57.586,62.822ZM37.059,60.855H56.5c-.335-6.668,1.281-12.064,4.808-16.046,4.937-5.58,11.988-6.551,13.78-6.71a1.717,1.717,0,0,0,.336-1.176c-.144-3.313-6.169-8.84-8.857-11.008l-5.722.6c3.029,1.995,7.416,5.4,7.157,8.253-.191,2.079-4.111,3.645-11.606,6.461-5.225,1.962-13.968,5.244-13.968,7.345,0,4.751-4.2,9.532-5.369,10.772v1.507Z" transform="translate(-35.092 -23.911)" fill="#5c5c5c"/>
    </g>
    <g id="Grupo_473" data-name="Grupo 473" transform="translate(-24480.797 -17451.787)">
        <path id="Caminho_135" data-name="Caminho 135" d="M34.088,58.02a1.072,1.072,0,0,1-.236-.028.984.984,0,0,1-.719-1.192c.756-3.054-.521-7.6-3.034-10.81-1.9-2.423-4.236-3.756-6.587-3.756-7.332,0-16.369-7.832-16.749-8.166a.981.981,0,0,1-.336-.74V31.041a.983.983,0,0,1,.984-.984H18.565a.984.984,0,0,1,.589.2l8.264,6.2h5.722c1.653-6.394,7.992-6.394,14.686-6.394,7.29,0,13.4,6.431,13.662,6.706a.984.984,0,0,1-1.436,1.345c-.058-.059-5.8-6.083-12.227-6.083-7.381,0-11.954.269-12.925,5.588a.988.988,0,0,1-.969.807H27.089a.986.986,0,0,1-.589-.2l-8.264-6.2H8.394v.846c1.676,1.389,9.258,7.4,15.118,7.4,2.969,0,5.858,1.6,8.136,4.512,2.9,3.707,4.3,8.845,3.4,12.5A.986.986,0,0,1,34.088,58.02Z" transform="translate(-6.426 -30.057)" fill="#5c5c5c"/>
    </g>
    <g id="Grupo_474" data-name="Grupo 474" transform="translate(-24482.045 -17437.158)">
        <path id="Caminho_136" data-name="Caminho 136" d="M17.159,71.717a12.205,12.205,0,1,1,10.4-18.569A.984.984,0,0,1,27,54.605l-9.564,2.839c-.382.115-1.231.522-1.415,1.034a1.237,1.237,0,0,0,.293,1.051c.025.031.823.89,7.144.89,1.617,0,3.267-.055,4.718-.125a.928.928,0,0,1,.78.325.989.989,0,0,1,.24.812A12.141,12.141,0,0,1,17.159,71.717Zm0-22.444A10.238,10.238,0,1,0,27,62.311c-1.138.045-2.345.074-3.534.074-6.693,0-8.193-.89-8.778-1.758a3.044,3.044,0,0,1-.51-2.819,4.277,4.277,0,0,1,2.707-2.251l8.251-2.451A10.149,10.149,0,0,0,17.159,49.273Z" transform="translate(-4.955 -47.306)" fill="#5c5c5c"/>
    </g>
    <g id="Grupo_475" data-name="Grupo 475" transform="translate(-24480.268 -17448.506)">
        <path id="Caminho_137" data-name="Caminho 137" d="M15.959,40.594a1,1,0,0,1-.15-.012L7.887,39.374a.98.98,0,0,1-.816-1.161l.684-3.492a.983.983,0,0,1,1.929.377L9.2,37.582l6.908,1.055a.984.984,0,0,1-.147,1.957Z" transform="translate(-7.052 -33.925)" fill="#5c5c5c"/>
    </g>
    <g id="Grupo_476" data-name="Grupo 476" transform="translate(-24425.283 -17440.459)">
        <path id="Caminho_138" data-name="Caminho 138" d="M78.652,58.1a.983.983,0,0,1-.9-.577L71.972,44.8a.984.984,0,0,1,1.791-.815l5.783,12.719a.983.983,0,0,1-.488,1.3A.994.994,0,0,1,78.652,58.1Z" transform="translate(-71.884 -43.414)" fill="#5c5c5c"/>
    </g>
    <g id="Grupo_477" data-name="Grupo 477" transform="translate(-24430.051 -17434.451)">
        <path id="Caminho_139" data-name="Caminho 139" d="M78.466,72.2A12.2,12.2,0,0,1,68.407,53.091a.982.982,0,0,1,.964-.416l6.775,1.067,9.3-3.19a.989.989,0,0,1,.959.183A12.2,12.2,0,0,1,78.466,72.2ZM69.7,54.72A10.239,10.239,0,1,0,85.536,52.6l-8.981,3.083a.972.972,0,0,1-.473.042Z" transform="translate(-66.263 -50.499)" fill="#5c5c5c"/>
    </g>
    <g id="Grupo_478" data-name="Grupo 478" transform="translate(-24420.902 -17427.861)">
        <path id="Caminho_140" data-name="Caminho 140" d="M80.105,64.373a3.052,3.052,0,1,1,3.052-3.051A3.056,3.056,0,0,1,80.105,64.373Zm0-4.136a1.084,1.084,0,1,0,1.084,1.085A1.085,1.085,0,0,0,80.105,60.237Z" transform="translate(-77.052 -58.269)" fill="#5c5c5c"/>
    </g>
    <g id="Grupo_479" data-name="Grupo 479" transform="translate(-24429.035 -17438.305)">
        <path id="Caminho_141" data-name="Caminho 141" d="M76.418,55.045a.946.946,0,0,1-.154-.012l-7.97-1.254a.986.986,0,0,1-.682-1.492,13.314,13.314,0,0,1,20.461-2.716.983.983,0,0,1-.353,1.649L76.737,54.99A.911.911,0,0,1,76.418,55.045Zm-6.245-2.962,6.157.968L85.4,49.939a11.336,11.336,0,0,0-15.228,2.144Z" transform="translate(-67.463 -45.954)" fill="#5c5c5c"/>
    </g>
    <g id="Grupo_480" data-name="Grupo 480" transform="translate(-24426.42 -17432.98)">
        <path id="Caminho_142" data-name="Caminho 142" d="M79.173,68.881a8.593,8.593,0,0,1-5.72-15.037.992.992,0,0,1,.809-.237l2.536.4,5.013-1.717a.953.953,0,0,1,.7.023,8.622,8.622,0,0,1-3.337,16.57ZM74.433,55.624a6.539,6.539,0,0,0-1.92,4.641,6.656,6.656,0,1,0,9.568-5.991l-4.875,1.672a.976.976,0,0,1-.473.042Z" transform="translate(-70.545 -52.233)" fill="#5c5c5c"/>
    </g>
    <g id="Grupo_481" data-name="Grupo 481" transform="translate(-24472.979 -17433.613)">
        <path id="Caminho_143" data-name="Caminho 143" d="M25.363,63.048c-4.179,0-8.119-.4-9.056-1.785a3.044,3.044,0,0,1-.51-2.819A4.277,4.277,0,0,1,18.5,56.193l15.714-4.666a.984.984,0,1,1,.561,1.886L19.064,58.079c-.382.115-1.231.522-1.415,1.034a1.242,1.242,0,0,0,.29,1.051c.829.978,8.363,1.189,16.459.46a.984.984,0,0,1,.177,1.96C32.36,62.782,28.783,63.048,25.363,63.048Z" transform="translate(-15.645 -51.487)" fill="#5c5c5c"/>
    </g>
    <g id="Grupo_482" data-name="Grupo 482" transform="translate(-24478.539 -17433.576)">
        <path id="Caminho_144" data-name="Caminho 144" d="M17.715,68.774a8.622,8.622,0,1,1,6.7-13.986.986.986,0,0,1-.488,1.559l-5.86,1.739c-.382.115-1.231.522-1.415,1.034a1.237,1.237,0,0,0,.293,1.051c.025.031.823.888,7.167.888l.964-.006a1.13,1.13,0,0,1,.784.374.979.979,0,0,1,.181.851A8.6,8.6,0,0,1,17.715,68.774Zm0-15.275a6.654,6.654,0,1,0,5.974,9.526c-6.352-.036-7.8-.906-8.377-1.756a3.044,3.044,0,0,1-.51-2.819A4.277,4.277,0,0,1,17.509,56.2l4.279-1.27A6.517,6.517,0,0,0,17.715,53.5Z" transform="translate(-9.088 -51.531)" fill="#5c5c5c"/>
    </g>
    </g>
</svg>