<svg xmlns="http://www.w3.org/2000/svg" width="88.653" height="47.706" viewBox="0 0 88.653 47.706">
        <g id="racing" transform="translate(-0.462 -3.122)">
        <g id="Grupo_496" data-name="Grupo 496" transform="translate(0.462 3.122)">
            <g id="Grupo_494" data-name="Grupo 494" transform="translate(54.658 14.461)">
            <path id="Caminho_161" data-name="Caminho 161" d="M56.647,15.6c-.671,1.61-1.342,3.354-2.147,4.964a33.058,33.058,0,0,1,5.1,1.878c.671-1.61,1.342-3.354,2.147-4.964A33.058,33.058,0,0,0,56.647,15.6Z" transform="translate(-36.656 -13.319)" fill="#777272"/>
            <path id="Caminho_162" data-name="Caminho 162" d="M43.347,16.2c-.671,1.61-1.342,3.354-2.147,4.964a33.058,33.058,0,0,0,5.1,1.878c.671-1.61,1.342-3.354,2.147-4.964A28.612,28.612,0,0,1,43.347,16.2Z" transform="translate(-41.2 -13.114)" fill="#777272"/>
            <path id="Caminho_163" data-name="Caminho 163" d="M51.047,18.5c-.671,1.61-1.342,3.354-2.147,4.964,1.744.4,3.623.671,5.367,1.208.671-1.61,1.342-3.354,2.147-4.964A34.685,34.685,0,0,0,51.047,18.5Z" transform="translate(-38.569 -12.328)" fill="#777272"/>
            <path id="Caminho_164" data-name="Caminho 164" d="M51.867,20.072c.671-1.61,1.342-3.354,2.147-4.964-1.744-.4-3.623-.671-5.367-1.208-.671,1.61-1.342,3.354-2.147,4.964C48.378,19.267,50.123,19.669,51.867,20.072Z" transform="translate(-39.389 -13.9)" fill="#777272"/>
            </g>
            <g id="Grupo_495" data-name="Grupo 495">
            <path id="Caminho_165" data-name="Caminho 165" d="M12,15.6a33.058,33.058,0,0,0-5.1,1.878c.671,1.61,1.342,3.354,2.147,4.964a33.058,33.058,0,0,1,5.1-1.878C13.34,18.954,12.669,17.344,12,15.6Z" transform="translate(1.738 1.142)" fill="#777272"/>
            <path id="Caminho_166" data-name="Caminho 166" d="M22.113,18.864c-.671-1.61-1.342-3.354-2.147-4.964-1.744.537-3.488.805-5.367,1.208.671,1.61,1.342,3.354,2.147,4.964C18.491,19.669,20.369,19.267,22.113,18.864Z" transform="translate(4.369 0.561)" fill="#777272"/>
            <path id="Caminho_167" data-name="Caminho 167" d="M12.2,19.608c.671,1.61,1.342,3.354,2.147,4.964,1.744-.537,3.488-.805,5.367-1.208-.671-1.61-1.342-3.354-2.147-4.964C15.823,18.8,13.944,19.205,12.2,19.608Z" transform="translate(3.549 2.099)" fill="#777272"/>
            <path id="Caminho_168" data-name="Caminho 168" d="M88.259,18.12c-8.05-7.111-17.844-5.1-26.7-9.526h0A21.03,21.03,0,0,1,57.535,5.91L58.071,4.7a1.11,1.11,0,0,0-2.013-.939c-.134-.4-5.367,12.209-11.27,26.565-5.9-14.49-11.136-27.1-11.27-26.565a1.128,1.128,0,0,0-1.476-.537A1.086,1.086,0,0,0,31.506,4.7l.537,1.208a14.076,14.076,0,0,1-4.025,2.683h0c-8.855,4.428-18.649,2.415-26.7,9.526a2.647,2.647,0,0,0-.671,2.952C6.014,33.817,8.563,39.989,8.563,39.989a2.65,2.65,0,0,0,2.415,1.61c2.818,0,.671-2.818,15.7-5.9l1.476-.268h0c4.964-1.073,9.794-2.281,13.685-5.5l1.61,3.757c-2.147,5.233-4.293,10.6-6.306,15.564a1.11,1.11,0,0,0,2.013.939l5.635-13.417,5.635,13.417a1.128,1.128,0,0,0,1.476.537,1.086,1.086,0,0,0,.537-1.476c-2.013-4.964-4.159-10.331-6.306-15.564l1.61-3.757c3.891,3.22,8.721,4.562,13.685,5.5h0L62.9,35.7c15.027,2.952,13.014,5.9,15.7,5.9a2.65,2.65,0,0,0,2.415-1.61s2.549-6.172,7.916-18.918A2.7,2.7,0,0,0,88.259,18.12ZM36.2,30.6a33.058,33.058,0,0,1-5.1,1.878c-.671-1.61-1.342-3.354-2.147-4.964-1.744.537-3.488.805-5.367,1.208.671,1.61,1.342,3.354,2.147,4.964-1.744.4-3.623.671-5.367,1.208-.671-1.61-1.342-3.354-2.147-4.964a33.058,33.058,0,0,0-5.1,1.878l2.147,4.964a17.775,17.775,0,0,0-3.354,2.147,1.1,1.1,0,0,1-1.744-.4L8.7,35.025a17.629,17.629,0,0,1,4.562-3.22c-.671-1.61-1.342-3.354-2.147-4.964a20.23,20.23,0,0,0-4.562,3.22C5.88,28.451,5.209,26.706,4.4,25.1a17.629,17.629,0,0,1,4.562-3.22c-.671-1.61-1.342-3.354-2.147-4.964a33.058,33.058,0,0,1,5.1-1.878c.671,1.61,1.342,3.354,2.147,4.964,1.744-.537,3.488-.805,5.367-1.208-.671-1.61-1.342-3.354-2.147-4.964,1.744-.4,3.623-.671,5.367-1.208.671,1.61,1.342,3.354,2.147,4.964A33.058,33.058,0,0,0,29.9,15.7c-.671-1.61-1.342-3.354-2.147-4.964a20.23,20.23,0,0,0,4.562-3.22c.268.671-.4-1.073,2.147,4.964A17.629,17.629,0,0,1,29.9,15.7c.671,1.61,1.342,3.354,2.147,4.964a20.23,20.23,0,0,0,4.562-3.22c0,.134,2.013,4.964,2.147,4.964a17.629,17.629,0,0,1-4.562,3.22C34.726,27.377,35.531,28.987,36.2,30.6Zm46.422-.671a17.629,17.629,0,0,0-4.562-3.22c-.671,1.61-1.342,3.354-2.147,4.964a20.23,20.23,0,0,1,4.562,3.22L79,38.379a1.1,1.1,0,0,1-1.744.4A17.775,17.775,0,0,0,73.9,36.635l2.147-4.964a33.058,33.058,0,0,0-5.1-1.878c-.671,1.61-1.342,3.354-2.147,4.964-1.744-.537-3.488-.805-5.367-1.208.671-1.61,1.342-3.354,2.147-4.964-1.744-.4-3.623-.671-5.367-1.208-.671,1.61-1.342,3.354-2.147,4.964a33.058,33.058,0,0,1-5.1-1.878c.671-1.61,1.342-3.354,2.147-4.964a20.23,20.23,0,0,1-4.562-3.22c.671-1.61,1.342-3.354,2.147-4.964a17.629,17.629,0,0,0,4.562,3.22c.671-1.61,1.342-3.354,2.147-4.964a20.231,20.231,0,0,1-4.562-3.22C55.522,10.74,56.193,9,57,7.386a17.629,17.629,0,0,0,4.562,3.22c-.671,1.61-1.342,3.354-2.147,4.964a33.058,33.058,0,0,0,5.1,1.878c.671-1.61,1.342-3.354,2.147-4.964,1.744.537,3.488.805,5.367,1.208-.671,1.61-1.342,3.354-2.147,4.964,1.744.4,3.623.671,5.367,1.208.671-1.61,1.342-3.354,2.147-4.964a33.058,33.058,0,0,1,5.1,1.878c-.671,1.61-1.342,3.354-2.147,4.964a20.23,20.23,0,0,1,4.562,3.22A40.838,40.838,0,0,0,82.624,29.926Z" transform="translate(-0.462 -3.122)" fill="#777272"/>
            <path id="Caminho_169" data-name="Caminho 169" d="M20.2,18.078c.671,1.61,1.342,3.354,2.147,4.964a33.058,33.058,0,0,0,5.1-1.878C26.774,19.554,26.1,17.81,25.3,16.2A33.059,33.059,0,0,1,20.2,18.078Z" transform="translate(6.282 1.347)" fill="#777272"/>
            </g>
        </g>
        </g>
</svg>